<svg xmlns="http://www.w3.org/2000/svg" viewBox="0 0 666 690"><path fill="#024" d="M159 24h50.5l.5 3h11.5l.5 3h9v3h6v3h6v3h5.5l.5 3h6v3h3v3h3v3h3v3h3v3h3v3h3v3h3v3q4.5-1.5 3 3h3v6h3v6h3v6h3v9l3 .5v11l3 1V135l-3 .5v14l-3 .5v9h-3v6h-3q1.5 4.5-3 3v6h-3v3h-3v3h-3v3h-3v3h-3v3h-3v3h-3v3h-3v3q-4.5-1.5-3 3h-6v-3h-3q1.5-4.5-3-3v-6h-3v-3h-3q1.5-4.5-3-3v-6h-3v-3h-3v-3h-3v-3h-3v-3h-3v-3h-3v-3h-3v-3h-3v-3h-3v-3h-3v-3h-3v-3h-3v-3q-4.5 1.5-3-3h-6v-3q-4.5 1.5-3-3h-6v-3q-4.5 1.5-3-3h-9l-.5-3H153v3h-9v3h-3v3h-3v3q-4.5-1.5-3 3h-6v3h-3v3h-3v3h-3v3h-3v3q-4.5-1.5-3 3h-6v3h-3v3h-3v3h-3v3h-3v3h-3v3q-4.5-1.5-3 3h-6v3h-3v3h-3v3h-3v3h-3v3q-4.5-1.5-3 3h-6v3h-3v3h-3v3h-3v3h-3v3q-4.5-1.5-3 3h-6v3h-3v3h-3v3q-4.5-1.5-3 3h-6v-3l-3-.5V174l3-.5v-14l3-1v-11l3-.5v-9h3v-9h3v-6h3v-6h3v-6h3v-5.5l3-.5v-6h3v-3h3q-1.5-4.5 3-3v-6h3v-3h3v-3h3q-1.5-4.5 3-3v-6h3v-3q4.5 1.5 3-3h6v-3h3v-3h3v-3h3q-1.5-4.5 3-3v-3h6v-3q4.5 1.5 3-3h6v-3h6v-3h6v-3h6v-3h9v-3h9l.5-3H159zm381 54h6v3h5.5l.5 3h6v3q4.5-1.5 3 3h6v3q4.5-1.5 3 3h6v3h3v3h3v3h3v3h3v3h3v3h3v3h3v3h3v3h3v3h3v3h3v3h3q-1.5 4.5 3 3v3h3v3h3v6h3v3h3q-1.5 4.5 3 3v6h3q-1.5 4.5 3 3v6h3v6h3v15h-3v3h-3v3h-3v3q-4.5-1.5-3 3h-6l-.5 3H615q1.5-4.5-3-3v-6h-3v-6h-3v-6h-3v-3h-3q1.5-4.5-3-3v-6h-3v-3h-3v-3h-3q1.5-4.5-3-3v-6h-3v-3h-3v-3h-3v-3h-3v-3h-3v-3h-3v-3h-3v-3q-4.5 1.5-3-3h-6v-3h-3v-3h-3v-3q-4.5 1.5-3-3h-6v-3q-4.5 1.5-3-3h-5.5l-.5-3h-6v-3l-3-.5V99h3v-6h3v-3h3v-3h3v-3h3v-3q4.5 1.5 3-3m-24 42h12v3q4.5-1.5 3 3h6v3q4.5-1.5 3 3h6v3h3v3h3v3h3v3h3v3h3v3h3v3h3v3h3v3h3v3h3v3h3v3h3v3h3q-1.5 4.5 3 3v6h3v3h3q-1.5 4.5 3 3v6h3q-1.5 4.5 3 3v8.5l3 .5v3h-3v6h-6v3h-3v3h-3v3h-3v3h-3v3h-3v3h-3v3h-3v3h-3v3h-3v3h-3v3h-3v3h-3v3h-3v3h-3v3h-3v3h-3v3h-3v3h-3v3h-3v3h-3v3h-3v3h-3v3h-3v3q-4.5-1.5-3 3h-3v3h-3v3h-3v-3h-3v-3h-3v-3h-3v-3h-3v-3h-3v-3h-3v-3h-3v-3h-3v-3h-3v-3h-3v-3h-3v-3h-3v-3h-3v-3h-3v-3h-3v-3h-3v-3h-3v-3h-3v-3h-3v-3h-3v-3h-3v-3h-3v-3h-3v-3h-3v-3h-3v-3h-3q1.5-4.5-3-3v-3h-3v-6h3v-3h3v-3h3v-3h3v-3h3v-3h3v-3h3v-3h3v-3h3v-3h3v-3h3v-3h3v-3h3v-3h3v-3h3v-3h3v-3h3v-3h3v-3h3v-3h3v-3h3v-3h3v-3h3v-3h3v-3h3q-1.5-4.5 3-3v-3h3v-3h3zm-333 51h21v3h3v3h3v3h3v3h3v3h3v3h3v3h3v3h3v3h3v3h3v3h3v3h3v3h3q-1.5 4.5 3 3v9h-3v3h-3v3h-3v3h-3v3q-4.5-1.5-3 3h-6v3h-3v3h-3v3h-3v3q-4.5-1.5-3 3h-6v3h-3v3h-3v3h-3v3q-4.5-1.5-3 3h-6v3h-3v3h-3v3h-3v3q-4.5-1.5-3 3h-6v6l-3 .5V300h3v6h3v3h3v3h3v3h3q-1.5 4.5 3 3v6h3v3h3v3h3v3h3v3h3q-1.5 4.5 3 3v6h3v3h3v3h3v3h3v3h3v3q4.5-1.5 3 3h6v-3l3-.5V351h-3q1.5-4.5-3-3v-6h-3v-3h-3v-3h-3v-3h-3v-3h-3q1.5-4.5-3-3v-6h-3v-3h-3v-3h-3v-3h-3q1.5-4.5-3-3v-6h-3v-3l-3-.5V288h3v-3q4.5 1.5 3-3h6v-3h3v-3h3v-3h3v-3h3v-3q4.5 1.5 3-3h6v-3h3v-3h3v-3h3v-3h3v-3q4.5 1.5 3-3h3v-3h6v-3h3v-3h3v-3q4.5 1.5 3-3h6l.5-3H270v3h3v3h3v3h3v3h3v3h3v3h3v3h3q-1.5 4.5 3 3v6h3v3h3v3h3v3h3v3h3q-1.5 4.5 3 3v6h3v3h3v3h3v3h3v3h3v3h3v3h3q-1.5 4.5 3 3v6h3v3h3v3h3v3h3v3h3v3h3v3h3q-1.5 4.5 3 3v6h3v3h3v3h3v3h3v3h3v3h3v3h3q-1.5 4.5 3 3v6h3v3h3v3h3v3h3v3h3v3h3v3h3q-1.5 4.5 3 3v6h3v3h3v3h3v3h3v3h3v3h3v3h3v3h3q-1.5 4.5 3 3v6h3v3h3v3h3v3h3v3h3v3h3v3h3v3h3q-1.5 4.5 3 3v6h3v3h3v3h3v3h3v3h3v3h3v3h3v3h3v3h3q-1.5 4.5 3 3v6h3v3h3v3h3v3h3v3h3v3h3v3q4.5-1.5 3 3h3v6h3v3h3v3h3v3h3v3h3v3h3q-1.5 4.5 3 3v6h3v3h3v3h3v3h3v3h3q-1.5 4.5 3 3v6h3v3h3v3h3v3h3q-1.5 4.5 3 3v6h3v3h3q-1.5 4.5 3 3v6h3v6h3v6l3 .5V627h-3v8.5l-3 .5v6h-3v3h-3v3h-3v3h-3v3h-3v3q-4.5-1.5-3 3h-6l-.5 3H549l-.5 3H516v-3h-6v-3h-5.5l-.5-3h-6v-3h-3v-3h-3v-3h-3q1.5-4.5-3-3v-6h-3v-3h-3v-3h-3q1.5-4.5-3-3v-6h-3v-3h-3v-3h-3v-3h-3v-3h-3q1.5-4.5-3-3v-6h-3v-3h-3v-3h-3v-3h-3v-3h-3q1.5-4.5-3-3v-6h-3v-3h-3v-3h-3v-3h-3v-3h-3q1.5-4.5-3-3v-6h-3v-3h-3v-3h-3v-3h-3v-3h-3q1.5-4.5-3-3v-6h-3v-3h-3v-3h-3v-3h-3v-3h-3v-3h-3q1.5-4.5-3-3v-6h-3v-3h-3v-3h-3v-3h-3v-3h-3q1.5-4.5-3-3v-6h-3v-3h-3v-3h-3v-3h-3v-3h-3q1.5-4.5-3-3v-6h-3v-3h-3v-3h-3v-3h-3v-3h-3v-3h-3q1.5-4.5-3-3v-6h-3v-3h-3v-3h-3v-3h-3v-3h-3v-3h-3q1.5-4.5-3-3v-6h-3v-3h-3v-3h-3v-3h-3v-3h-3v-3h-3v-3h-3q1.5-4.5-3-3v-6h-3l-.5-3H264v3h-3v3h-3v3q-4.5-1.5-3 3h-6v3h-3v3h-3v3h-3v3h-3v3h-3v3q-4.5-1.5-3 3h-15q1.5-4.5-3-3v-6h-3v-3h-3v-3q-4.5 1.5-3-3h-5.5l-.5-3h-6v3h-6v3h-6q1.5 4.5-3 3v-3h-6v-3h-3v-3h-3v-3h-3v-3h-3v-3h-3v-3h-3q1.5-4.5-3-3v-6l-3-.5V363h-3v-3h-3v-3h-3v-3h-3v-3h-3v-3h-3v-3h-3v-3h-3v-3h-3q1.5-4.5-3-3v-6h-3v-3h-3v-3h-3v-3h-3v-3h-3v-3h-3v-3h-3v-3h-3q1.5-4.5-3-3v-6h-3v-3h-3v-3h-3v-3h-3v-3h-3q1.5-4.5-3-3v-15h3v-6h3v-3h3v-3h3v-3h3v-3h3v-3h3v-3h3v-3h3v-3h3v-3h3v-3h3q-1.5-4.5 3-3v-3h6v-3h3v-3h3v-3h3v-3q4.5 1.5 3-3h6v-3h3v-3h3v-3q4.5 1.5 3-3h6v-3h3v-3h3v-3q4.5 1.5 3-3h6v-3h3v-3h3v-3h3v-3q4.5 1.5 3-3h6zm327 402v3h-6q2 5-3 3v3h-3v6h-3v27h3v6q5-1 3 3h3v3h3v3h3v3h3v3h6l1 3h14v3h3l1-3h8q-1-4 3-3v-3h3v-3h3v-3h3v-6h3v-18h-3v-6h-3v-6h-3v-6q-4 2-3-3h-3v-3h-6v-3h-6v-3zM357 273h9v3h3v3h3v3h3v3h3v3h3v3h3v3h3v3h3v3h3v3h3v3h3v3h3v3h3v3h3v3h3v3h3v3h3v3h3v3h3v3h3v3q4.5-1.5 3 3h3v6h3v3h3v3h3v3h3v3q4.5-1.5 3 3h6v6h-3v3h-3v3h-3v3h-3v3h-3v3h-3v3q-4.5-1.5-3 3h-6v-3h-3v-3h-3v-3h-3v-3h-3v-3h-3q1.5-4.5-3-3v-6h-3v-3h-3v-3h-3v-3h-3v-3h-3v-3h-3v-3h-3v-3h-3v-3h-3v-3h-3q1.5-4.5-3-3v-6h-3v-3h-3v-3h-3v-3h-3v-3h-3v-3h-3v-3h-3v-3h-3v-3h-3q1.5-4.5-3-3v-6h-3v-3q-4.5 1.5-3-3h3v-3h3v-3q4.5 1.5 3-3h6v-3q4.5 1.5 3-3M192 423h6v6h3v3h3v3h3v3h3v3q4.5-1.5 3 3h8.5l.5 3h6q-1.5 4.5 3 3v6h3v3h3v3h3q-1.5 4.5 3 3v6h3v3h3v3h3v3h3v3h3v3h3v3h3v3h3v3q4.5-1.5 3 3h3v6h3v3h3v3h3q-1.5 4.5 3 3v3h-3v3h-3v3h-3v3h-3v3h-3v3h-3v3h-3v3h-3v3h-3v3h-3v3h-3v3h-3v3h-3v3h-3v3h-3v3h-3v3h-3v3h-3v3h-3v3q-4.5-1.5-3 3h-3v3h-6v3h-3v3h-3v3h-3v3h-3v3h-3v3h-3v3h-3v3h-3v3h-3v3h-3v3h-3v3h-3v3h-3v3h-3v3q-4.5-1.5-3 3h-6v-3h-6v-3q-4.5 1.5-3-3h-6v-3h-3v-3h-3v-3q-4.5 1.5-3-3h-6v-3h-3v-3h-3v-3h-3v-3h-3v-3h-3v-3h-3v-3h-3v-3h-3v-3h-3v-3h-3v-3q-4.5 1.5-3-3h-3v-6h-3v-3h-3v-3h-3q1.5-4.5-3-3v-6h-3q1.5-4.5-3-3v-6l-3-.5V531h3v-3h3v-3h3v-3h3v-3h3v-3h3v-3h3v-3h3v-3h3v-3h3v-3h3v-3h3v-3h3v-3h3v-3h3v-3h3v-3h3v-3h3v-3h3v-3h3v-3h3v-3h3v-3h3v-3h3v-3q4.5 1.5 3-3h3v-3h3v-3h6v-3h3v-3h3v-3h3v-3h3v-3h3v-3q4.5 1.5 3-3h6v-3q4.5 1.5 3-3M54 537h12q-1.5 4.5 3 3v6h3q-1.5 4.5 3 3v6h3v3h3q-1.5 4.5 3 3v6h3v3h3v3h3v3h3q-1.5 4.5 3 3v6h3v3h3v3h3v3h3v3h3v3h3v3q4.5-1.5 3 3h6v3h3v3h3v3h3q-1.5 4.5 3 3v3h6v3h3v3q4.5-1.5 3 3h5.5l.5 3h6v3h3q-1.5 4.5 3 3v6h-3v6h-3v3h-3v3h-3v3h-3v3q-4.5-1.5-3 3h-15v-3h-6v-3q-4.5 1.5-3-3h-6v-3q-4.5 1.5-3-3h-6v-3h-3v-3h-3v-3q-4.5 1.5-3-3h-6v-3h-3v-3h-3v-3h-3v-3h-3v-3h-3v-3h-3v-3h-3v-3h-3v-3h-3q1.5-4.5-3-3v-6h-3v-3h-3v-3h-3q1.5-4.5-3-3v-6h-3q1.5-4.5-3-3v-6h-3q1.5-4.5-3-3v-6h-3v-6l-3-.5V555h3v-3h3v-3h3v-3h3v-3h3v-3q4.5 1.5 3-3m459 51h18v3h3v3h3v3h3q-1.5 4.5 3 3v6l3 .5V618h-3v3q-4.5-1.5-3 3h-6q1.5 4.5-3 3v-3h-9v-3h-3v-3h-3v-3h-3q1.5-4.5-3-3v-8.5l-3-.5v-3h3v-8.5l3-.5z"/><path fill="#69be28" d="M174 21h23.5l.5 3h-23.5zm87 27h3v3h3v3h3v3h3v3q4.5-1.5 3 3h-3v-3h-3v-3h-3v-3h-3v-3q-4.5 1.5-3-3M87 57q4.5-1.5 3 3h-3v3h-3q1.5 4.5-3 3v-3h3v-3q4.5 1.5 3-3m432 45h3v6q4.5-1.5 3 3h-3q1.5-4.5-3-3zm66 3h3v3h3v3h3v3h3v3h3v3h3v3h3v3h3q-1.5 4.5 3 3v3h3v3h-3v-3h-3v-3h-3v-3h-3v-3h-3v-3h-3v-3h-3v-3h-3v-3h-3v-3q-4.5 1.5-3-3m-69 12h6v3h-6v3h-3v3h-3v3h-3v3h-3v3h-3q1.5 4.5-3 3v3h-3v-3h3v-3h3v-3h3v-3h3v-3h3v-3q4.5 1.5 3-3h3zm-363 6h14.5l.5 3h-14.5zm405 9h3v3h3v3h3v3h3v3h3v3h3v3h3v3h3v3q4.5-1.5 3 3h-3v-3h-3v-3h-3v-3h-3v-3h-3v-3h-3v-3h-3v-3h-3v-3q-4.5 1.5-3-3m-3 9h3v3h3v3h3v3h3v3h3v3h3v3q4.5-1.5 3 3h-3v-3h-3v-3h-3v-3h-3v-3h-3v-3h-3v-3q-4.5 1.5-3-3m-357 3h3v3h3v3h3v3h3v3h3v3h3v3h3v3h3v3h3v3h3v3h3v3q4.5-1.5 3 3h-3v-3h-3v-3h-3v-3h-3v-3h-3v-3h-3v-3h-3v-3h-3v-3h-3v-3h-3v-3h-3v-3q-4.5 1.5-3-3m-90 12q4.5-1.5 3 3h-3v3h-3q1.5 4.5-3 3v-3h3v-3q4.5 1.5 3-3m294 45q4.5-1.5 3 3h6v3q4.5-1.5 3 3h6v3h3v3h3v3h3v3h3v3h3v3h3v3h3v3h3v3h3v3h3v3h3v3h3q-1.5 4.5 3 3v6q-4.5-1.5-3 3h3v3h3v3q4.5-1.5 3 3h15v3h3v3h3v3h3v3h3v3h3q-1.5 4.5 3 3v6h3v3h3v3h3v3h3v3q4.5-1.5 3 3h3v6h3v6l3 .5v8.5q4.5-1.5 3 3h-3v6h-3v3h-3v3h-3v3h-3v3h-3v3h-3v3h-3v3h-3v3h-3v3h-3v3h-3v3h-3v3q-4.5-1.5-3 3h-5.5l-.5 3h-6v-3h-6v-3h-6v-3h3v-6q4.5 1.5 3-3h-3v-6q-4.5 1.5-3-3h-6v-3h-3v-3h-3v-3h-3v-3h-3v-3h-3v-3h-3v-3h-3v-3h-3q1.5-4.5-3-3v-5.5l-3-.5v-6q4.5 1.5 3-3h-3v-3h-3v-3q-4.5 1.5-3-3h-12v-3h-3v-3h-3v-3h-3v-3h-3v-3h-3v-3h-3v-3h-3v-3h-3v-3h-3v-3h-3v-3h-3v-3q-4.5 1.5-3-3h-15v-3l-3-.5V249h3v-6h3v-3h3v-3h3v-3h3v-3q4.5 1.5 3-3h6v-3h3v-3h3v-3h3v-3h3v-3h3v-3h3v-3q4.5 1.5 3-3h6zm27 78q2 5-3 3v3h-3v3h-3v6q5 2 3-3h3v-3h3v-3h3v-3h3v-3zm168-66q4.5-1.5 3 3h-3v3h-3v3h-3v3h-3v3h-3v3h-3v3h-3v3h-3v3h-3q1.5 4.5-3 3v-3h3v-3h3v-3h3v-3h3v-3h3v-3h3v-3h3v-3h3v-3q4.5 1.5 3-3m-351 3h3v6h-3v3h-3q1.5 4.5-3 3v-3h3q-1.5-4.5 3-3zm24 12h3v3h3v3q4.5-1.5 3 3h-3v-3h-3v-3q-4.5 1.5-3-3m87 42h6v3h-6v3h-3q1.5 4.5-3 3v-3h3v-3q4.5 1.5 3-3m150 15h3v3h3q-1.5 4.5 3 3v3h-3v-3h-3v-3q-4.5 1.5-3-3m-144 33h3v3h3v3h3v3q4.5-1.5 3 3h-3v-3h-3v-3h-3v-3q-4.5 1.5-3-3m-255 6h3v3h3v3q4.5-1.5 3 3h-3v-3h-3v-3q-4.5 1.5-3-3m324 18h3v3h3v3h3v3h3v3h3v3q4.5-1.5 3 3h-3v-3h-3v-3h-3v-3h-3v-3h-3v-3q-4.5 1.5-3-3m-36 12h3v3h3v3h3v3q4.5-1.5 3 3h-3v-3h-3v-3h-3v-3q-4.5 1.5-3-3m-168 3q4.5-1.5 3 3-4.5-1.5-3 3h-6v-3h6zm156 0h3v3h3v3q4.5-1.5 3 3h-3v-3h-3v-3q-4.5 1.5-3-3m24 27h3v3h3v3q4.5-1.5 3 3h-3v-3h-3v-3q-4.5 1.5-3-3m-159 24q4.5-1.5 3 3h-3v3h-3q1.5 4.5-3 3v-3h3v-3q4.5 1.5 3-3m18 3h3v3h3v3h3v3h3v3h3q-1.5 4.5 3 3v6h3v3h3v3h3v3h3v3h3v3h3q-1.5 4.5 3 3v6h3v3h3v3h3v3h3v3h3v3h3v3h3q-1.5 4.5 3 3v6q4.5-1.5 3 3h-3v3h-3v3h-3v3h-3v3h-3v3h-3v3q-4.5-1.5-3 3h-6v3h-3q1.5 4.5-3 3v-3h-6v-3h-3q1.5-4.5-3-3v-6h-3v-3h-3v-3h-3v-3h-3v-3h-3v-3h-3q1.5-4.5-3-3v-6h-3v-3h-3v-3h-3v-3q-4.5 1.5-3-3h-3v-6h-3v-3h-3v-3h-3v-3h-3q1.5-4.5-3-3v-6h3v-3h3v-3h3v-3h3v-3h3v-3q4.5 1.5 3-3h6v-3h3v-3q4.5 1.5 3-3m168 3h3v3h3v3q4.5-1.5 3 3h-3v-3h-3v-3q-4.5 1.5-3-3m-141 6h3v3h3v3q4.5-1.5 3 3h-3v-3h-3v-3q-4.5 1.5-3-3m-96 6h3v3h3v3h3v3q4.5-1.5 3 3h-3v-3h-3v-3h-3v-3q-4.5 1.5-3-3m-18 3q4.5-1.5 3 3h-3v3h-3v3h-3v3h-3v3h-3v3h-3q1.5 4.5-3 3v-3h3v-3h3v-3h3v-3h3v-3h3v-3q4.5 1.5 3-3m282 15h3v3h3v3q4.5-1.5 3 3h-3v-3h-3v-3q-4.5 1.5-3-3m-219 24h3v3h3v3q4.5-1.5 3 3h-3v-3h-3v-3q-4.5 1.5-3-3m93 0h3v3h3v3q4.5-1.5 3 3h-3v-3h-3v-3q-4.5 1.5-3-3m156 9h3v3h3v3q4.5-1.5 3 3h-3v-3h-3v-3q-4.5 1.5-3-3m24 27h3v3h3v3q4.5-1.5 3 3h-3v-3h-3v-3q-4.5 1.5-3-3m-420 6q4.5-1.5 3 3h-3v3h-3v3h-3v3h-3v3h-3v3h-3q1.5 4.5-3 3v-3h3v-3h3v-3h3v-3h3v-3h3v-3q4.5 1.5 3-3m-51 33q4.5-1.5 3 3h-3v3h-3v3h-3q1.5 4.5-3 3v-3h3v-3h3v-3q4.5 1.5 3-3m465 30h23.5l.5 3h6v3h6v3h3q-1.5 4.5 3 3v6h3v5.5l3 .5v6h3v18h-3v6h-3v3h-3v3h-3v3q-4.5-1.5-3 3h-8.5l-.5 3h-3l-.5-3h-14l-.5-3h-6v-3h-3v-3h-3v-3h-3v-3h-3q1.5-4.5-3-3v-6l-3-.5V588h3v-6h3v-3q4.5 1.5 3-3h6zm3 15v3l-3 1v8h-3v3l3 1v8q5-1 3 3h3v3h3v3h3v3h9v3q5 2 3-3h6q-1-4 3-3v-3h3v-11l-3-1v-6q-4 2-3-3h-3v-3h-3v-3h-3v-3zm-297-9q4.5-1.5 3 3h-3v3h-3v3h-3v3h-3v3h-3v3h-3v3h-3v3h-3v3h-3v3h-3q1.5 4.5-3 3v-3h3v-3h3v-3h3v-3h3v-3h3v-3h3v-3h3v-3h3v-3h3v-3q4.5 1.5 3-3m-117 3h3v3h3v3h3v3h3v3h3v3h3v3h3v3q4.5-1.5 3 3h-3v-3h-3v-3h-3v-3h-3v-3h-3v-3h-3v-3h-3v-3q-4.5 1.5-3-3m426 84h17.5l.5 3h-17.5z"/><path fill="#f0f9ea" d="M162 21h11.5l.5 3h-11.5zM78 63q4.5-1.5 3 3h-3v3h-3q1.5 4.5-3 3v-3h3v-3q4.5 1.5 3-3M63 81q4.5-1.5 3 3h-3v3h-3q1.5 4.5-3 3v-3h3v-3q4.5 1.5 3-3m468 3q4.5-1.5 3 3h-3v3h-3v3h-3q1.5 4.5-3 3v-3h3v-3h3v-3q4.5 1.5 3-3m45 12h3v3h3v3q4.5-1.5 3 3h-3v-3h-3v-3q-4.5 1.5-3-3m-279 21 3 .5V129l-3-.5zm249 6h3v3h3v3q4.5-1.5 3 3h-3v-3h-3q1.5-4.5-3-3zm-405 6q4.5-1.5 3 3h-3v3h-3v3h-3q1.5 4.5-3 3v-3h3v-3h3v-3q4.5 1.5 3-3m405 3h3v3h3v3q4.5-1.5 3 3h-3v-3h-3v-3q-4.5 1.5-3-3m69 3h3v3h3v3q4.5-1.5 3 3h-3v-3h-3v-3q-4.5 1.5-3-3m-123 6q4.5-1.5 3 3h-3v3h-3v3h-3v3h-3v3h-3v3h-3v3h-3v3h-3v3h-3v3h-3v3h-3v3h-3v3h-3v3h-3v3h-3v3h-3v3h-3v3h-3v3h-3v3h-3v3q-4.5-1.5-3 3h-3v-3h3v-3h3v-3h3v-3h3v-3h3v-3h3v-3h3v-3h3v-3h3v-3h3v-3h3v-3h3v-3h3v-3h3v-3h3v-3h3v-3h3v-3h3v-3h3v-3h3q-1.5-4.5 3-3zm-369 3q4.5-1.5 3 3h-3v3h-3v3h-3v3h-3q1.5 4.5-3 3v-3h3v-3h3v-3h3v-3q4.5 1.5 3-3m453 18h3v3h3v3h3v3q4.5-1.5 3 3h-3v-3h-3v-3h-3v-3q-4.5 1.5-3-3m9 0h3v3h3v3q4.5-1.5 3 3h-3v-3h-3v-3q-4.5 1.5-3-3m-486 3q4.5-1.5 3 3h-3v3h-3v3h-3q1.5 4.5-3 3v-3h3v-3h3v-3q4.5 1.5 3-3m78 6q4.5-1.5 3 3h-3v3h-3v3h-3v3h-3q1.5 4.5-3 3v-3h3v-3h3v-3h3v-3q4.5 1.5 3-3m27 0h3v3h3v3h3v3h3v3h3v3h3v3h3v3h3v3h3v3h3v3h3v3h3v3h3v3h3v3q4.5-1.5 3 3h-3v-3h-3v-3h-3v-3h-3v-3h-3v-3h-3v-3h-3v-3h-3v-3h-3v-3h-3v-3h-3v-3h-3v-3h-3v-3h-3v-3q-4.5 1.5-3-3m75 3q4.5-1.5 3 3h-3v3h-3v3h-3v3h-3v3h-3v3h-3v3h-3v3h-3v3q-4.5-1.5-3 3h-6v-3h-3v-3q-4.5 1.5-3-3h3v3q4.5-1.5 3 3h6v-3h3v-3h3v-3h3v-3h3v-3h3v-3h3v-3h3v-3q4.5 1.5 3-3m363 3 3 .5V189h-3v3h-3v3h-3v3h-3v3h-3q1.5 4.5-3 3v-3h3v-3h3v-3h3v-3h3q-1.5-4.5 3-3zm-621 3 3 .5V216l-3-.5zm57 3q4.5-1.5 3 3h-3v3h-3v3h-3q1.5 4.5-3 3v-3h3v-3h3v-3q4.5 1.5 3-3m78 6q4.5-1.5 3 3h-3v3h-3q1.5 4.5-3 3v-3h3v-3q4.5 1.5 3-3m-99 12q4.5-1.5 3 3h-3v3h-3v3h-3v3h-3q1.5 4.5-3 3v-3h3v-3h3v-3h3v-3q4.5 1.5 3-3m84 0q4.5-1.5 3 3h-3v3h-3q1.5 4.5-3 3v-3h3v-3q4.5 1.5 3-3m255 0h6v3h-6v3h-3v3h-3v3h-3v3h-3v3h-3v3h-3v3h-3q1.5 4.5-3 3v-3h3v-3h3v-3h3v-3h3v-3h3v-3h3v-3h3v-3q4.5 1.5 3-3m9 0h6v3h3v3q4.5-1.5 3 3h-3v-3q-4.5 1.5-3-3h-6zm15 9h3v3h3v3h3v3h3v3h3v3h3v3h3v3h3v3h3v3h3v3h3v3h3v3q4.5-1.5 3 3h-3v-3h-3v-3h-3v-3h-3v-3h-3v-3h-3v-3h-3v-3h-3v-3h-3v-3h-3v-3h-3v-3h-3v-3q-4.5 1.5-3-3m-294 3q4.5-1.5 3 3h-3v3h-3q1.5 4.5-3 3v-3h3v-3q4.5 1.5 3-3m309 0h3v3h3v3h3v3h3v3h3v3h3v3h3v3h3v3h3v3h3v3h3v3h3v3h3v3h3v3h3v3h3v3h3v3h3v3h3v3h3v3q4.5-1.5 3 3h3v3h3v3h3v3h-3v-3h-3v-3h-3v-3h-3v-3h-3v-3h-3v-3h-3v-3h-3v-3h-3v-3h-3v-3h-3v-3h-3v-3h-3v-3h-3v-3h-3v-3h-3v-3h-3v-3h-3v-3h-3v-3h-3v-3h-3v-3h-3v-3q-4.5 1.5-3-3h-3zm-399 6q4.5-1.5 3 3h-3v3h-3q1.5 4.5-3 3v-3h3q-1.5-4.5 3-3zm72 9q4.5-1.5 3 3h-3v3h-3v3h-3v3h-3v3h-3v3h-3v3h-3v3h-3v3h-3v3h-3v3h-3q1.5 4.5-3 3v3h-3v-3h3v-3h3v-3h3v-3h3v-3h3v-3h3v-3h3v-3h3v-3h3v-3h3v-3h3q-1.5-4.5 3-3zm129 0q4.5-1.5 3 3h-3v3h-3v3h-3q1.5 4.5-3 3v-3h3v-3h3v-3q4.5 1.5 3-3m42 9h3v3h3v3h3v3h3v3q4.5-1.5 3 3h-3v-3h-3v-3h-3v-3h-3v-3q-4.5 1.5-3-3m-60 6q4.5-1.5 3 3h-3v3h-3q1.5 4.5-3 3v-3h3v-3q4.5 1.5 3-3m15 0q4.5-1.5 3 3h-3v3h-3v3h-3v3h-3q1.5 4.5-3 3v-3h3v-3h3v-3h3q-1.5-4.5 3-3zm333 0q4.5-1.5 3 3h-3v3h-3v3h-3v3h-3v3h-3v3h-3v3h-3v3h-3v3h-3v3h-3v3h-3v3h-3v3h-3v3h-3v3h-3v3h-3q1.5 4.5-3 3v-3h3v-3h3v-3h3v-3h3v-3h3v-3h3v-3h3v-3h3v-3h3v-3h3v-3h3v-3h3v-3h3v-3q4.5 1.5 3-3h3v-3h3zm-111 12h3v3h3v3h3v3q4.5-1.5 3 3h-3v-3h-3v-3h-3q1.5-4.5-3-3v3h-3v3h-3q1.5 4.5-3 3v-3h3v-3h3v-3q4.5 1.5 3-3m-255 3q4.5-1.5 3 3h-3v3h-3q1.5 4.5-3 3v-3h3v-3q4.5 1.5 3-3m12 3q4.5-1.5 3 3h-3v3h-3v3h-3v3h-3q1.5 4.5-3 3v-3h3v-3h3v-3h3v-3q4.5 1.5 3-3m87 0h3v3h3v3h3v3q4.5-1.5 3 3h-3v-3h-3v-3h-3v-3q-4.5 1.5-3-3m66 0h3v3h3v3h3v3h3v3h3v3h3v3h3v3h3v3h3v3h3v3h3v3h3v3q4.5-1.5 3 3h6v3h-6v-3h-3v-3h-3v-3h-3v-3h-3v-3h-3v-3h-3v-3h-3v-3h-3v-3h-3v-3h-3v-3h-3v-3h-3v-3q-4.5 1.5-3-3m-297 9 3 .5V282l-3-.5zm294 0h3v3h3v3h3v3h3v3h3v3h3v3h3v3h3v3h3v3h3v3h3v3h3v3h3v3h3v3h3v3h3v3h3v3h3v3h3v3h3v3h3v3q4.5-1.5 3 3h3v3h-3v-3h-3v-3h-3v-3h-3v-3h-3v-3h-3v-3h-3v-3h-3v-3h-3v-3h-3v-3h-3v-3h-3v-3h-3v-3h-3v-3h-3v-3h-3v-3h-3v-3h-3v-3h-3v-3h-3v-3h-3v-3q-4.5 1.5-3-3h-3zm120 0h3v3h3v3q4.5-1.5 3 3h-3v-3h-3v-3q-4.5 1.5-3-3m-300 3q4.5-1.5 3 3h-3v3h-3q1.5 4.5-3 3v-3h3v-3q4.5 1.5 3-3m255 0q4.5-1.5 3 3h-3v3h-3v3h-3v3h-3v3h-3v3h-3v3h-3q1.5 4.5-3 3-1.5-4.5 3-3v-6h3v-3h3v-3q4.5 1.5 3-3h6v-3q4.5 1.5 3-3m-246 6q4.5-1.5 3 3h-3v3h-3v3h-3q1.5 4.5-3 3v-3h3v-3h3v-3q4.5 1.5 3-3m153 0q4.5-1.5 3 3h-3v3h-3q1.5 4.5-3 3v-3h3v-3q4.5 1.5 3-3m-27 3h3v3h3v3h3v3h3v3h3v3q4.5-1.5 3 3h-3v-3h-3v-3h-3v-3h-3v-3h-3v-3q-4.5 1.5-3-3m-246 3h3v3h3v3h3v3q4.5-1.5 3 3h-3v-3h-3v-3h-3v-3q-4.5 1.5-3-3m426 3h3v3h3v3h3v3h3v3q4.5-1.5 3 3h3v3h-3v-3h-3v-3h-3v-3h-3v-3h-3v-3q-4.5 1.5-3-3m-156 9h3v3h3v3h3v3h3v3h3v3h3v3q4.5-1.5 3 3h-3v-3h-3v-3h-3v-3h-3v-3h-3v-3h-3v-3q-4.5 1.5-3-3m72 3h3v3h3v3h3v3q4.5-1.5 3 3h-3v-3h-3v-3h-3v-3q-4.5 1.5-3-3m-324 6h3v3h3v3h3v3h3v3h3v3q4.5-1.5 3 3h-3v-3h-3v-3h-3v-3h-3v-3h-3v-3q-4.5 1.5-3-3m99 0h3v3h3v3h3v3q4.5-1.5 3 3h-3v-3h-3v-3h-3v-3q-4.5 1.5-3-3m-12 3h3v3h3v3h3v3q4.5-1.5 3 3h-3v-3h-3v-3h-3v-3q-4.5 1.5-3-3m165 0h3v3h3v3h3v3h3v3h3v3q4.5-1.5 3 3h-3v-3h-3v-3h-3v-3h-3v-3h-3v-3q-4.5 1.5-3-3m-150 18h3v3h3v3h3v3q4.5-1.5 3 3h-3v-3h-3v-3h-3v-3q-4.5 1.5-3-3m15 0h3v3h3v3h3v3q4.5-1.5 3 3h-3v-3h-3v-3h-3v-3q-4.5 1.5-3-3m315 3h3v6h-3v3h-3v3h-3v3h-3q1.5 4.5-3 3v-3h3v-3h3v-3q4.5 1.5 3-3h3zm-408 3h3v3h3v3h3v3h3v3h3v3h3v3h3v3h3v3q4.5-1.5 3 3h3v3h-3v-3h-3v-3h-3v-3h-3v-3h-3v-3h-3v-3h-3v-3h-3v-3h-3v-3q-4.5 1.5-3-3m261 0h3v3h3v3h3v3h3v3h3v3h3v3q4.5-1.5 3 3h-3v-3h-3v-3h-3v-3h-3v-3h-3v-3h-3v-3q-4.5 1.5-3-3m-9 3h3v3h3v3h3v3h3v3h3v3q4.5-1.5 3 3h-3v-3h-3v-3h-3v-3h-3v-3h-3v-3q-4.5 1.5-3-3m-144 9h3v3h3q-1.5 4.5 3 3v6h-3v-6h-3v-3q-4.5 1.5-3-3m-12 3h3v3h3v3h3v3q4.5-1.5 3 3h-3v-3h-3v-3h-3v-3q-4.5 1.5-3-3m240 0q4.5-1.5 3 3h6v3q4.5-1.5 3 3-4.5 1.5-3-3h-6v-3q-4.5 1.5-3-3m48 9q4.5-1.5 3 3h-3v3h-3v3h-3v3h-3v3h-3q1.5 4.5-3 3v-3h3v-3h3v-3h3v-3h3v-3q4.5 1.5 3-3m-105 9h3v3h3v3h3v3h3v3h3v3q4.5-1.5 3 3h-3v-3h-3v-3h-3v-3h-3v-3h-3v-3q-4.5 1.5-3-3m12 0h3v3h3v3h3v3h3v3h3v3h3v3q4.5-1.5 3 3h6v-3h3v-3h3v-3h3v-3h3v-3h3v-3h3q-1.5-4.5 3-3v3h-3v3h-3v3h-3v3h-3v3h-3v3h-3v3q-4.5-1.5-3 3h-6v-3h-3v-3h-3v-3h-3v-3h-3v-3h-3v-3h-3v-3q-4.5 1.5-3-3m-255 27h3v3h3v3h3v3h3v3h3v3h3v3h3v3q4.5-1.5 3 3h-3v-3h-3v-3h-3v-3h-3v-3h-3v-3h-3v-3h-3v-3q-4.5 1.5-3-3m267 0h3v3h3v3h3v3h3v3h3v3h3v3q4.5-1.5 3 3h-3v-3h-3v-3h-3v-3h-3v-3h-3v-3h-3v-3q-4.5 1.5-3-3m-153 3q4.5-1.5 3 3h-3v3h-3v3h-3v3q-4.5-1.5-3 3h-3v-3h3v-3h3v-3h3v-3q4.5 1.5 3-3m15 9h3v3h3v3h3v3h3v3q4.5-1.5 3 3h-3v-3h-3v-3h-3v-3h-3v-3q-4.5 1.5-3-3m-15 6q4.5-1.5 3 3h-3v3h-3q1.5 4.5-3 3v-3h3v-3q4.5 1.5 3-3m6 0h3v3h3v3q4.5-1.5 3 3h-3v-3h-3v-3q-4.5 1.5-3-3m-30 6q4.5-1.5 3 3h-3v3h-3v3h-3v3h-3q1.5 4.5-3 3v-3h3v-3h3v-3h3v-3q4.5 1.5 3-3m204 6h3v3h3v3h3v3h3v3h3v3h3v3q4.5-1.5 3 3h-3v-3h-3v-3h-3v-3h-3v-3h-3v-3h-3v-3q-4.5 1.5-3-3m-198 3q4.5-1.5 3 3h-3v3h-3v3h-3v3h-3q1.5 4.5-3 3v-3h3v-3h3v-3h3v-3q4.5 1.5 3-3m39 3h3v3h3v3h3v3h3v3q4.5-1.5 3 3h-3v-3h-3v-3h-3v-3h-3v-3q-4.5 1.5-3-3m15 0h3v3h3v3h3v3h3v3h3v3q4.5-1.5 3 3h-3v-3h-3v-3h-3v-3h-3v-3h-3v-3q-4.5 1.5-3-3m-63 15h3v3h3v3h3v3h3v3q4.5-1.5 3 3h-3v-3h-3v-3h-3v-3h-3v-3q-4.5 1.5-3-3m-78 3q4.5-1.5 3 3h-3v3h-3v3h-3v3h-3v3h-3v3h-3v3h-3v3h-3v3h-3v3h-3v3h-3v3h-3v3h-3v3h-3v3h-3v3h-3v3h-3v3q-4.5-1.5-3 3h-3v3h-3v3h-3v-3h3v-3h3v-3h3v-3h3v-3h3v-3h3v-3h3v-3h3v-3h3v-3h3v-3h3v-3h3v-3h3v-3h3v-3h3v-3h3v-3h3v-3h3v-3q4.5 1.5 3-3h3zm147 6h3v3h3v3h3v3h3v3h3v3q4.5-1.5 3 3h-3v-3h-3v-3h-3v-3h-3v-3h-3v-3q-4.5 1.5-3-3m15 0h3v3h3v3h3v3h3v3q4.5-1.5 3 3h-3v-3h-3v-3h-3v-3h-3v-3q-4.5 1.5-3-3m150 0h3v3h3v3h3v3h3v3h3v3h3v3q4.5-1.5 3 3h-3v-3h-3v-3h-3v-3h-3v-3h-3v-3h-3v-3q-4.5 1.5-3-3m-237 3h3v3h3v3h3v3q4.5-1.5 3 3h-3v-3h-3v-3h-3v-3q-4.5 1.5-3-3m21 9h3v3h3v3h3v3q4.5-1.5 3 3h-3v-3h-3v-3h-3v-3q-4.5 1.5-3-3m-3 12h3v3h3v3h3v3h3v3h3v3h3v3q4.5-1.5 3 3h-3v-3h-3v-3h-3v-3h-3v-3h-3v-3q-4.5 1.5-3-3h-3zm90 0h3v3h3v3h3v3h3v3q4.5-1.5 3 3h-3v-3h-3v-3h-3v-3h-3v-3q-4.5 1.5-3-3m-72 6h3v3h3v3h3v3h3v3h3v3q4.5-1.5 3 3h-3v-3h-3v-3h-3v-3h-3v-3h-3v-3q-4.5 1.5-3-3m231 3h3v3h3v3h3v3h3q-1.5 4.5 3 3v3h3v3h-3v-3h-3v-3h-3v-3h-3v-3h-3v-3q-4.5 1.5-3-3m-138 15h3v3h3v3h3v3q4.5-1.5 3 3h-3v-3h-3v-3h-3v-3q-4.5 1.5-3-3m162 12h3v3h3v3h3v3h3v3q4.5-1.5 3 3h-3v-3h-3v-3h-3v-3h-3v-3q-4.5 1.5-3-3m-243 3q4.5-1.5 3 3h-3v3h-3v3h-3v3h-3v3h-3v3h-3v3h-3v3h-3v3h-3v3h-3v3h-3v3h-3v3h-3v3h-3v3h-3v3h-3v3h-3v3h-3v3h-3v3h-3v3q-4.5-1.5-3 3h-3v-3h3v-3h3v-3h3v-3h3v-3h3v-3h3v-3h3v-3h3v-3h3v-3h3v-3h3v-3h3v-3h3v-3h3v-3h3v-3h3v-3h3v-3h3v-3q4.5 1.5 3-3h3v-3h3zm99 6h3v3h3v3h3v3h3v3q4.5-1.5 3 3h-3v-3h-3v-3h-3v-3h-3v-3q-4.5 1.5-3-3m162 12h3v3h3v3h3v3q4.5-1.5 3 3h-3v-3h-3v-3h-3v-3q-4.5 1.5-3-3m-144 9h3v3h3v3h3v3h3v3q4.5-1.5 3 3h-3v-3h-3v-3h-3v-3h-3v-3q-4.5 1.5-3-3m162 12h3v3h3v3q4.5-1.5 3 3h-3v-3h-3v-3q-4.5 1.5-3-3m-144 9h3v3h3v3h3v3h3v3q4.5-1.5 3 3h-3v-3h-3v-3h-3v-3h-3v-3q-4.5 1.5-3-3m-330 3h3v3h3v3h3v3q4.5-1.5 3 3h-3v-3h-3v-3h-3v-3q-4.5 1.5-3-3m12 3h3v3h3v3h3v3h3v3h3v3h3v3h3v3h3v3h3v3h3q-1.5 4.5 3 3v3h3v3h-3v-3h-3v-3h-3v-3h-3v-3h-3v-3h-3v-3h-3v-3h-3v-3h-3v-3h-3v-3h-3v-3q-4.5 1.5-3-3m336 15h3v3h3v3h3v3h3v3q4.5-1.5 3 3h-3v-3h-3v-3h-3v-3h-3v-3q-4.5 1.5-3-3m-384 6h3v3h3v3q4.5-1.5 3 3h-3v-3h-3v-3q-4.5 1.5-3-3m537 6 3 .5V624l-3-.5zm-462 9h3v3h3v3h3v3q4.5-1.5 3 3h-3v-3h-3v-3h-3q1.5-4.5-3-3zm327 0h3v3h3v3h3v3h3v3q4.5-1.5 3 3h-3v-3h-3v-3h-3v-3h-3v-3q-4.5 1.5-3-3m-387 3h3v3h3v3h3v3h3v3h3v3h3v3h3v3h3v3h3v3q4.5-1.5 3 3h-3v-3h-3v-3h-3v-3h-3v-3h-3v-3h-3v-3h-3v-3h-3v-3h-3v-3q-4.5 1.5-3-3m75 0h3v3h3v3q4.5-1.5 3 3h-3v-3h-3v-3q-4.5 1.5-3-3m42 3q4.5-1.5 3 3h-3v3h-3v3h-3v3h-3v3h-3q1.5 4.5-3 3v-3h3v-3h3v-3h3v-3h3v-3q4.5 1.5 3-3m288 15h3v3h3v3q4.5-1.5 3 3h-3v-3h-3v-3q-4.5 1.5-3-3m108 15q4.5-1.5 3 3h-3v3h-3q1.5 4.5-3 3v-3h3v-3q4.5 1.5 3-3m-93 3h3v3h3v3h3v3q4.5-1.5 3 3h-3v-3h-3v-3h-3v-3q-4.5 1.5-3-3m-324 6q4.5-1.5 3 3h-3v3h-3v3h-3q1.5 4.5-3 3v-3h3v-3h3v-3q4.5 1.5 3-3"/></svg>