<svg xmlns="http://www.w3.org/2000/svg" viewBox="0 0 691 720"><path fill="#024" stroke="#024" d="m173.5 0 27 1 1 1h5l13 3 14 5q30.3 12.7 49.5 36.5 12.4 15.1 19 36l3 13v6l1 1v20l-1 1v7l-1 1-1 8-8 19Q279.5 183 257.5 201l-5-3-18-17-48.5-48.5-11.5-12.5-13-5h-14l-7 2-10 6-121 105h-5L2 225.5q1-4-1-5l-1-35 1-1v-10l1-1 1-12 5-21q6.7-22.3 17-41Q43.8 65.3 72.5 41q18.9-16.1 43-27l30-10h4l6-2h6l1-1h10zm402 64h8l25 15q26.1 19.4 47.5 43.5 14.6 15.9 26 35l8 16 1 9q-2.3 6.2-7.5 9.5l-14 11h-10l-2.5-2.5-1-5-6-11-12-17q-16.7-21.3-36.5-39.5l-26-21-16-9-4.5-1-1-6.5q7.9-16.1 21.5-26.5Z"/><path fill="#024" stroke="#024" d="m552.5 107 9 3 19 13q21 16.5 38.5 36.5l25 33 4 8 1 6-2 4.5-7.5 5-88 87h-2l-76-78-20.5-17.5zm-366 57 11 1 6 3 40.5 40.5 5 6q2.5 2 2 7l-2.5 3.5-84.5 70.5q-3.2 3.3-2 11l3 6 56.5 65.5h5l4.5-4.5v-5l-3-4-48-56-1-8 5.5-6.5 17-13 54-47 9-6 6-1q9 4 14.5 11.5l94 108 176 195 53 62q10.9 12.6 19 28l4 14v21l-1 1-1 8-6 13-12.5 15.5q-10.1 9.4-25 14l-8 1-1 1h-15l-20-6-10-6-10.5-9.5Q402.5 556 279.5 418q-2.5-2-8-1l-41 37q-2.7 2.8-9 2-8.2-3.3-12.5-10.5L197.5 433l-6-1-14 7-7 1q-7.1-2.9-11.5-8.5l-22-26q-1.9-3.6-1-10l2-8q-2-1-1-5l-5-7-29-29-48-54-2-6v-6l4-8L89.5 239l86-71zM554 613l-1 1-8 1-10 6-5 6-5 13v11l1 4 7 15 15 13 12 5q5-1 7 1l8-1 11-5q8-6 12-17v-16l-1-4q-4-11-11-18-7-8-16-12l-6-2zM374.5 278h5l54.5 54.5 45 47v2l-7.5 8.5-19 18h-2L353 301.5v-4z"/><path fill="#024" stroke="#024" d="M187.5 448h4l5 2 9.5 9.5 7.5 8.5 11 3 8.5 8.5 10 14 42 46 7 9v2L164.5 675h-3q-17.6-9.4-32-22L89 613.5l-27-35-2-5v-5L180.5 451zm-148 125 8 1 3.5 2.5 6 12 10 14 35.5 39.5 31 27 27.5 17.5q1.3 6.8-1 10-7.4 11.6-18 20v1.5q-3.3 2.1-11.5 1l-14-7-25-18Q70.8 677.2 53 657.5l-26-33-13-23v-6L26.5 582zm512 57q7.6-1.1 12 1l10.5 7.5 7 11 1 12q-2.3 6.2-7.5 9.5l-2 1h-10q-11.3-4.2-17.5-13.5l-4-9v-8q1.8-7.2 7.5-10.5z"/><path fill="#69be28" stroke="#69be28" d="M420.5 201h7l12 8q24.1 19.4 44.5 42.5 2.5 3.5 1 11l10.5 11.5q5.5 1 8-1 8 2.5 13 8l19.5 18.5q12.4 12.6 20 30l2 7v9q-8.1 15.9-21.5 26.5l-24 20q-4 4-12 4-8.1-2.4-13.5-7.5 3.2-3.3 2-11l-6-10-36-36-1-6 2-4-11.5-12.5-8 2-3.5-2.5-27.5-32.5-10-8-7-3h-5l-6 3q-3.9-4.6-3.5-13.5l2-5 15.5-15.5 27-26 7-6zm-148 233h2l7.5 7.5 64 74-29.5 27.5q-2.2 3.8-9 3l-8.5-6.5-6-9-11-11-40-47-4-5v-2l2.5-3.5zm281 179 10 1 6 2q9.8 4.3 16.5 11.5 6.9 7.6 11 18l1 4v16q-3.7 11.3-12.5 17.5l-11 5-8 1q-1.5-2.5-7-1l-12-5-14.5-13.5-7-15-1-4v-11l5-13 4.5-5.5 10-6 8-1zm-1.5 17-3 1q-6 3-8 11v8l4 9q6 9 18 13h10l2-1q5-3 7-9l-1-12-7-11-10-8q-5-2-12-1Z"/></svg>