<svg xmlns="http://www.w3.org/2000/svg" viewBox="0 0 720 636"><path fill="#024" d="M288 24h14.5l.5 3h9v3h9v3h6v3h8.5l.5 3h6v3h9v3h6v3h6v3h9v3h6v3h9v3h6v3h6l.5 3h8.5v3q4.5-1.5 3 3h6v6l3 .5V168h6l.5 3h8.5v3h6l.5 3h8.5l.5 3h8.5v3h9v3h9v3h9v3h6v3h6v3h6q-1.5 4.5 3 3v99h-9l-.5 3H486l-.5-3H465l-.5 3h-14l-.5 3h-8.5l-.5 3h-6v3h-3v3h-3v3h-3v3h-3q1.5 4.5-3 3v6h-3v6l-3 .5V351l-3 .5V378h3l.5 3H429v-6l3-.5v-35l3-.5v-9h3q-1.5-4.5 3-3v-6h6v-3q4.5 1.5 3-3h95.5l1-3H609l.5 3H636v3h6q-1.5 4.5 3 3v6l3 .5V480h-3l-.5 3H627v-3l-3-.5v-35l-3-.5v-8.5l-3-.5v-6h-3q1.5-4.5-3-3v-6h-3v-3h-3v-3h-3v-3q-4.5 1.5-3-3h-6v-3q-4.5 1.5-3-3h-9l-.5-3H570l-.5-3H318v3h-9v3h-5.5l-.5 3h-6v3q-4.5-1.5-3 3h-6v3h-3q1.5 4.5-3 3v6h-3v3h-3q1.5 4.5-3 3v6l-3 .5V447l-3 .5V483H72v-3h-3v-3l-3-.5V450q4.5 1.5 3-3h6l.5-3H171V327h-17.5l-.5.5V432H99v-3l-3-.5V201h3v-3q4.5 1.5 3-3h6v-3h6v-3h5.5l.5-3h6v-3h8.5l.5-3h6v-3h6v-3h9v8.5l-3 .5v9l3 .5V204l-3 .5V294h3v3q4.5-1.5 3 3h12V78h3v-3q4.5 1.5 3-3h6v-3h6v-3h6v-3h6v-3h6v-3h6v-3h9v-3h6v-3h9v-3h6v-3h6v-3h9v-3h6v-3h9v-3h6v-3h9zm-9 69v3h-11l-1 3-3 1v50h3l1-3h8l1-3h11v-3h6V93zm-54 12v3h-9v3h-6q2 5-3 3v45h3v3h6l1-3h8l1-3h8v-3h3v-48zm126 0v45q5-1 3 3h6l1 3h11v3h9v-48h-3v-3h-9v-3zm-72 66v3h-11l-1 3h-3v51h3v3h6l1-3h11l1-3h8v-54zm-48 12v3h-14l-1 3h-6q2 5-3 3v45h3v3h12v-3h12v-3h3v-50zm120 0v48q5-1 3 3h6l1 3h20v-48h-6v-3h-14l-1-3zm93 45q2 5-3 3v33h3l1 3h8l1 3h14v-36h-6v-3h-14l-1-3zm-162 24v3h-14l-1 3h-3v45h18l1-3h11v-48zm72 6q2 5-3 3v42h6l1 3h14v3h6q-1-4 3-3v-42h-6v-3h-12v-3zm-135 3v3h-8l-1 3h-3v42h3v3h6l1-3h17v-3h3v-45zm51 66v3l-6 1v44h24v-3h6v-45zm-48 6v3h-11l-1 3h-3v36h3v6h18v-3h9v-45zm321 21v24h3v3h24v-3h3v-24zm-333 57v15h21v-3h6v-12zm354-174h11.5l1 3H588v3h5.5l.5 3h6v3h3v3h3v3h3q-1.5 4.5 3 3v6h3v6l3 .5v14l3 1V297h-3v6h-3l-.5-3H594q1.5 4.5-3 3v-23.5l-3-.5v-6h-3v-3h-3l-.5-3H564v3l-3 .5V282l-3 .5V300h-30v-26.5l3-.5v-8.5l3-.5v-6h3q-1.5-4.5 3-3v-6q4.5 1.5 3-3h6v-3h3l.5-3H564zM324 414h14.5l.5 3h-14.5zm105 0h137.5l.5 3H429.5zm-126 9q4.5-1.5 3 3h-3v3h-3q1.5 4.5-3 3v-3h3v-3q4.5 1.5 3-3m282 0h3v3h3v3h3q-1.5 4.5 3 3v6h3v6h3v6h3v9h-3v-9h-3v-6h-3v-5.5l-3-.5v-6h-3v-3h-3v-3q-4.5 1.5-3-3m-252 27h218.5l.5 3H333.5zm222 3h3v9h6v6q-4.5-1.5-3 3l3 .5v11l.5.5H603v-6h3v8.5l-.5.5H555l-.5-3H345l-.5 3H306l.5-3H330v-26.5l.5-.5h224zm-270 3 3 .5V483h14.5l.5 3h-14.5l-.5-3h-3zm-27 42h86.5l.5 3 3 .5v11l.5.5h173l.5 3h3v3h3v6h3v6l3 .5v8.5l3 .5V582h-3v8.5l-3 .5v6h-3v3h-3l-.5 3h-203l-.5 3h-9l-.5 3h-14l-1 3H270v-3h-6q1.5-4.5-3-3v-12l3-.5v-20l3-.5v21h42v-3h3v-3h3v-3h3v-3h3q-1.5-4.5 3-3v-9l3-.5V519h-45v6l-3 .5v20l-3 .5v-15h-3v-5.5l-3-.5v-6h-3q1.5-4.5-3-3v-6h-3q1.5-4.5-3-3zm285 0h89.5l.5.5v11l.5.5H675v3h6v3h3v3h3q-1.5 4.5 3 3v6l3 .5v11l3 1V573h-3v8.5l-3 .5v9h-3v3h-3v3q-4.5-1.5-3 3h-6l-.5 3h-92l-.5 3h-3v-3h-9l-.5 3H552v-11.5l3-.5v-9l3-.5v-14l3-1V552l-3-.5v-14l-3-.5v-9h-3v-9h-3q1.5-4.5-3-3v-6h-3v-6q-4.5 1.5-3-3 4.5 1.5 3-3m27 24v6h6v3h15l1-3h11l1-3h11v-3zm-531-9h197.5l.5 3h3v3h3v9h3v9l3 .5V582h-3v11.5l-3 .5v6h-3l-.5 3h-146l-1 3H54v-3H42.5l-.5-3h-6q1.5-4.5-3-3v-6h-3v-6h-3v-14.5l-3-1V540l3-.5v-14l3-.5v-6q4.5 1.5 3-3h6zm3 18q2 5-3 3v3h6q-1 5 3 3v6q5-1 3 3h3v12h3v21l-3 1v14h6q-1-4 3-3v-6h3v-39h-3v-6h-3v-6q-4 2-3-3h-6v-3zm225 24h3v6q4.5-1.5 3 3h-3q1.5-4.5-3-3z"/><path fill="#69be28" d="M267 96h6v3h-6q1.5 4.5-3 3v-3q4.5 1.5 3-3m-33 9 3 .5V153l-3-.5zm117 0 3 .5V150l-3-.5zm-144 9 3 .5v44l6 .5v3h-6v-3l-3-.5zm144 69 3 .5V195l-3-.5zm-144 9 3 .5V237l-3-.5zm-54 12 3 .5V225l-3-.5zm291 24q4.5-1.5 3 3l-3 .5v32l-3 .5v-32.5l3-.5zm-162 24h11.5l.5 3h-11.5zm72 6h9v3h-9v6h-3v-6q4.5 1.5 3-3m-147 9 3 .5v41l6 .5v3h-6v-3l-3-.5zm-54 12 3 .5V294h3l.5 3H171v3h-12v-3h-3q1.5-4.5-3-3zm435 0 3 .5V300l-3-.5zm-30 3 3 .5V300h-3l-.5 3H531l.5-3H558zm-93 18h20.5l.5 3h-20.5zm129 0h20.5l.5 3h-20.5zm-135 12h86.5l.5 3h-86.5zm150 0h14.5l.5 3h-14.5zm-456 15 3 .5V432l-3-.5zm117 0h23.5l.5 3h-23.5zm378 9 3 .5V375l-3-.5zm-441 3 3 .5V375l-3-.5zm-39 6 3 .5V357l-3-.5zm261 3 3 .5V375l-3-.5zm-153 24h11.5l.5 3h-11.5zm135 3q4.5-1.5 3 3h6v3h-6v-3q-4.5 1.5-3-3m135 3h23.5l.5 3h-23.5zm-228 18h251.5l.5 3H318.5zm-30 15q4.5-1.5 3 3h-3v3h-3q1.5 4.5-3 3v-3h3v-3q4.5 1.5 3-3m33 3h3l.5 3H339l.5-3H429l.5 3H567q-1.5-4.5 3-3-3 9 6 6-1.5-4.5 3-3v6h3q-1.5-4.5 3-3v6h3v3h3q-1.5 4.5 3 3v6h3q-1.5-4.5 3-3 1.5 4.5-3 3v6h3q-1.5-4.5 3-3 1.5 4.5-3 3v6h3q-1.5-4.5 3-3v3l-3 .5v8.5h3v3l3 .5V480h-3q1.5-4.5-3-3l-.5 6H564v-11.5l-3-.5v-3h3v-6h-6v-9h-3l-.5 3h-224l-.5.5V483h-23.5l-.5 3h-3l-.5-3H288v-26.5l-3-.5v-3h3q-1.5-4.5 3-3v-8.5l3-.5v-9h6v-3h3q-1.5-4.5 3-3v-6h3q-1.5 4.5 3 3v-6h3v3h6zm0 9 1 3h11v-3zm240 15q-1 5 3 3v3h6q-1 5 3 3v3h3v3h3v-6h-3v-6q-4 2-3-3zm-228 12 1 3h218v-3zm-123-27h20.5l.5 3h-20.5zm57 24 3 .5V480l-3-.5zm309 48h50.5l.5 3h-50.5zm-294 24h45v51h-3v9h-3v3h-3v3h-3v3h-3v3q-4.5-1.5-3 3h-42v-20.5l-3-1V549h3v3q4.5-1.5 3 3h-3v6h3q-1.5-4.5 3-3v3h6v-8.5l-3-.5v-6l3-.5v-20l3-.5zm288 3h44.5l.5 3h-11.5l-1 3h-11l-1 3H576v-3h-6zm-528 9h8.5l.5 3h6q-1.5 4.5 3 3v6h3v6h3v39h-3v6q-4.5-1.5-3 3h-6v-14.5l3-1V561l-3-.5V549h-3q1.5-4.5-3-3v-6q-4.5 1.5-3-3h-6v-3q4.5 1.5 3-3m3 3q-1 5 3 3v3h3v6q5-1 3 3h3v12h3v21l-3 1v11h3v-6h3v-38l-3-1v-6q-4 2-3-3h-3v-3h-3v-3zm204 21 3 .5V567l-3-.5zm-9 45q4.5-1.5 3 3h-3l-.5 3H93l.5-3h146zm18 0h3v6q4.5-1.5 3 3h-3q1.5-4.5-3-3zm324 3h41.5l.5 3h-41.5z"/><path fill="#f0f9ea" d="M177 69q4.5-1.5 3 3h-3v3h-3q1.5 4.5-3 3v-3h3v-3q4.5 1.5 3-3m243 9 3 .5V165l-3-.5zm-252 3 3 .5V297h-11.5l-.5-3-3-.5v-14l-3-1V237h3v-9q-4.5 1.5-3-3l3-.5V195h9q-1.5 4.5 3 3zm114 12h11.5l.5.5V138q-4.5-1.5-3 3h-6l-.5 3h-11l-.5 3h-9v-44.5l3-.5v-3h6v-3h9zm-54 12 6 .5V156h-11.5l-1 3H210v-47.5l.5-.5h8.5l.5-3h8.5zm126 0h11.5l.5 3h8.5l.5 3h6v45h-3q1.5 4.5-3 3l-.5-3h-11l-.5-3h-9zm-69 66h8.5l.5.5V222h-3l-.5 3H279l-.5 3H264v-51h6l.5-3h14zm69 12h3l.5 3H372v3h6q-1.5 4.5 3 3v45h-17.5l-.5-3h-9v-11.5l-3-1V195l3-.5zm-132 3h14.5l.5.5V234h-6l-.5 3h-14l-.5 3h-6v-50.5l.5-.5h11zm279 9h3v3h3v3l3 .5V303l-3-.5v-101l-3-.5v-3h-3zm-408 9 3 .5V405l-3-.5zm351 27h14.5l.5 3h6q-1.5 4.5 3 3v33h-11.5l-1-3H444zm99 12q4.5-1.5 3 3h-3v3h-3q1.5 4.5-3 3v-3h3v-3q4.5 1.5 3-3m57 3h3v3h3v3h3v3q4.5-1.5 3 3h-3v-3h-3v-3h-3v-3q-4.5 1.5-3-3m-330 9h24v42h-3l-.5 3h-17l-.5 3h-9v-44.5l6-.5zm-42 6h8.5l.5.5V306h-3l-.5 3H210v-45h17.5zm126 0h14.5l.5 3h8.5l.5 3h3v39h-20.5l-.5-3h-6v-6l-3-.5V267h3zm78 51q4.5-1.5 3 3h-3v3h-3v3h-3v3h-3q1.5 4.5-3 3v-3h3v-3h3v-3h3v-3q4.5 1.5 3-3m204 3h6v3h3v3q4.5-1.5 3 3h-3v-3q-4.5 1.5-3-3h-6zm-471 12h3q-1.5 4.5 3 3v15h-3v-14.5l-3-.5zm99 3h30v39h-3l-.5 3h-14l-1 3H264zm-33 3h3v3l3 .5V375h-3l-.5 3H222l-.5 3H210v-45h20.5zm312 21h27v3l3 .5V378h-30zm-375 3 3 .5V399l-3-.5zm243 3 3 .5V375l-3-.5zm237 15 3 .5V477l-3-.5zm-438 36h24v3l3 .5v8.5h-27zm90 12q4.5-1.5 3 3h-3v3h-3q1.5 4.5-3 3v-3h3v-3q4.5 1.5 3-3m21 0h12v3q4.5-1.5 3 3h-3v3q-4.5-1.5-3 3h-5.5l-.5 3h-6v3h-3v3h-3v3h-3v3h-3q1.5 4.5-3 3v-3h3v-3h3v-3h3v-3h3v-3q4.5 1.5 3-3h5.5l.5-3h6v-3q4.5 1.5 3-3h-11.5l-.5 3h-6q1.5 4.5-3 3v-3q4.5 1.5 3-3h6zm267 0h3v3h3v3q4.5-1.5 3 3h-3v-3h-3v-3q-4.5 1.5-3-3m-420 3 3 .5V441h-3l-.5 3H78l.5-3h89l.5-.5zm-54 6h41.5l.5 3h-41.5zm192 3q4.5-1.5 3 3h-3q1.5 4.5-3 3v6h-3v-6h3v-3q4.5 1.5 3-3m255 3h12q-1.5 4.5 3 3v6h3v6h-3v-3h-3v-3q-4.5 1.5-3-3h-6v-3q-4.5 1.5-3-3M63 453l3 .5V477l-3-.5zm222 30q4.5-1.5 3 3h6v3h-6v-3q-4.5 1.5-3-3m24 3h35.5l.5 3h-35.5zm246 0h32.5l.5 3h-32.5zm-297 9h86.5l.5 3h-86.5zm291 0h26.5l.5 3h-26.5zm-201 9h3l.5 6h167l.5 3H348.5l-.5-.5zm-297 3h3v6H42.5l-.5-3h9zm6 3h176.5l.5 3H57.5zm618 0h6v3h3v3h3v3h3q-1.5 4.5 3 3v3h-3v-3h-3v-3h-3v-3q-4.5 1.5-3-3h-6zm-153 3h3v3h3v3q4.5-1.5 3 3h-3v-3h-3v-3q-4.5 1.5-3-3M45 534h6v3h3v3h3q-1.5 4.5 3 3v6l3 .5V588h-3v6h-3v-11.5l3-1V561l-3-.5V549h-3q1.5-4.5-3-3v-6h-3v-3q-4.5 1.5-3-3m204 6 3 .5V555l-3-.5zm288 6 3 .5V576l-3-.5zm159 3 3 .5V561l-3-.5zm-138 6 3 .5V570l-3-.5zm-309 12 3 .5V579l-3-.5zm375 36h41.5l.5 3h-41.5z"/></svg>