<svg xmlns="http://www.w3.org/2000/svg" viewBox="0 0 720 626"><path fill="#024" stroke="#024" d="M287.5 0h7l8 2 48 19 52 22 14 7 3.5 3.5 3 6v61l1 1v31l1.5 1.5 27 11 48 16 10 5 4.5 4.5 2 4V297h-5.5l-1 1-35 1-1 1h-14q-1.2 2.2-6 1-17.4 5.2-27.5 17.5l-7 12-4 13-1 18-1 1v14l2.5 4.5 9 1q1.2-2.2 6-1l1.5-1.5 1-2v-31q2-1 1-5l5-13 9.5-11.5 8-5 7-2h20l1 1h42l1-1h64l2-1 1 1h39l1 1h10l12 4 6.5 6.5 3 8v51l1 1-1 1v12l1 1v92l-1 2.5-5.5 2h-18l-2.5-1v-30.5l-3-13q-7.2-19.3-21.5-31.5-11.9-10.6-30-15h-274q-24.9 7.1-38.5 25.5-8 9.5-12 23 1.3 4.8-1 6V491H50.5l-4.5-4.5-2-7v-14l3-9 3.5-3.5 8-3h10l1-1h38l1 1h46l1.5-1.5 1-61-1-1v-60l-2.5-2.5-7-1-6.5 3.5v104l-3.5 4.5-8 2h-8l-1 1h-22l-1-1-13-1-5.5-3.5-1-2v-238q1.4-6.1 6.5-8.5l55.5-25 1 3.5q-2 1 0 2v124l3.5 4.5q4.6 3.1 12.5 2V82.5l1-1v-21l7.5-8.5 48-23 64-26zM283 73l-1 1h-5l-8 2-8 4-4 4v8l-1 1v26l1 1v12l2 1 28-8 1-1V75q-1-3-5-2Zm-61 14-17 5-8 6v47l2 1 15-2 12-4V88q0-2-4-1Zm129 0v50l10 4 8 2h5l1 1 4-1h1V93l-6-3-11-3zm-70 71-10 3-8 1-6 4v53l2 1 15-1 12-3 2-4v-51l-1-1v-2zm72 13-2 2q1 4-1 6v37l2 8 4 2 8 1 1 1h15v-48l-8-5zm-131 1-4 2h-5l-11 3-5 4v48l1 2 3 1 21-5h4l1-1v-53q0-2-5-1Zm227 48-2 2v37l4 2 15 4h7l1-1h1v-35l-2-3-10-4zm-175 26-15 4-2 2v46l3 1 16-1 11-3 1-1v-45l-2-3zm80 6-3 1v6l-1 1v36l1 3 5 2 8 1 1 1 14 1 1-1v-43l-10-6-8-1-1-1zm-138 3-1 1-9 1-8 3-1 3v40l3 2 4 1 17-1 6-3v-47zm47 71-4 1-2 2v45l5 2h16l8-2 2-2v-44l-1-2zm-48 6-1 1h-7l-7 2-3 4 1 41 6 3h13l9-3 1-2v-43l-2-3zm342 21-2 2q1 3-1 5v19l1 1 1 1h28l1-4v-21l-2-3zm-354 62-3 3v10l3 2h10l1 1q8 1 12-1l1-3q1-8-1-11l-4-1z"/><path fill="#024" stroke="#024" d="M577.5 229h14l15 4q12.6 5.9 20.5 16.5l7 12 3 9q-1 4 1 5v20l-1 2.5h-5.5l-1 1h-10l-1-1-14.5-.5 1-1v-18l-4-12-5.5-5.5q-4.4-2.1-12-1l-6.5 3-4 8.5v24l-2.5 2.5q-4-1-5 1h-19q-1-2-5-1l-2.5-2.5v-23l1-1 1-11q5.1-13.9 15.5-22.5l9-6zm-246 233h239l3.5 2.5 3 7 1 17 3.5 3.5 1.5.5-254.5.5-1.5-1.5v-24zm250 44h57l1 1h10l1.5 1.5 2 5v7l-.5 1.5h46q8.8 3.7 13.5 11.5l4 7 3 11q-1.5 5.5 1 7v20l-1 1-1 12-3 10q-3.2 8.8-9.5 14.5l-12 5-14 2-1 1-26 1-1 1h-31l-1-1h-25l-1-1h-17l-1-1H564l9-35.5q-1.3-4.8 1-6v-16l-1-1-2-14-4-12-6-12-5-6-3-9 1-3.5 3.5-1h23zm-329 1h89l2.5 2.5q2.8 2.7 2 9l2.5 4.5h179q8.3 1.7 12.5 7.5l7 14 3 13q-1.5 5.5 1 7v23l-1 1v6l-3 11q-3.1 8.4-9.5 13.5l-3 1h-213l-3 2-11 3q-5.5-1.5-7 1h-17l-1-1-13-1-10.5-3v-3.5q7.8-10.2 11-25-1.2-4.7 1-6v-22l-1-1v-8l-4-16q-4.3-11.7-13-19l-3-6v-4zm-233 16h24l1 1h76l1-1h96l1 1h8l5.5 5.5q4.8 7.7 7 18l1 10 1 1 1 20-1 1v12l-1 1-2 14-5 12-4.5 4.5h-170l-1 1h-19l-1-1h-11l-4-1q-7.7-3.2-12.5-9.5l-5-8-3-10-1-14-1-1v-24l1-1v-7l3-11 8.5-10.5zM18 545v3l4 2 6 8 5 10 2 8v21l-4 15q1 2 6 1l5-6 3-11v-9l1-1-2-19-6-14q-3-6-9-8z"/><path fill="#69be28" stroke="#69be28" d="M282.5 73q4.5-1 5.5 1.5v49l-1.5 1.5-28 8-1.5-1.5v-12l-1-1v-26l1-1v-8l3.5-3.5 8-4 8-2h5zm-61 14q4.5-.5 4.5.5V140l-12.5 4-15 2-1.5-1.5v-47l7.5-5.5zM351 87h11.5l11 3 6.5 3v49.5l-1.5.5-4 1-1-1h-5l-8-2-9.5-4zm-70.5 71h6l.5 1.5 1 1v51l-2.5 4.5-12 3-15 1-1.5-1.5v-53l5.5-3.5 8-1zm72 13 19 4 8.5 4.5v48l-.5.5h-15l-1-1-8-1-3.5-2.5-2-8v-37q2.3-1.2 1-6zm-131 1q5.4-.6 5.5.5v53l-1.5 1.5h-4l-21 5-2.5-1-1-2.5v-48l4.5-3.5 11-3h5zm227 48 14 2 10 4 2.5 2.5v35l-1.5.5-1 1h-7l-15-4-3.5-2.5v-37zm-175 26h12l2.5 2.5v45l-1.5 1.5-11 3-16 1-2.5-1v-46.5l1.5-1.5zm80 6h7l1 1 8 1 10.5 5.5v43l-1.5 1.5-14-1-1-1-8-1-4.5-2.5-1-3v-36l1-1V253zm-138 3h11l.5.5v46l-6.5 3.5-17 1-4-1-2.5-2.5v-40l1-2.5 7.5-3 9-1zm47 71h24l1.5 1.5v44l-2.5 2.5-8 2h-16l-4.5-2.5v-45l1.5-1.5zm-48 6h10l2.5 2.5v43l-1 2.5-9.5 3h-13l-5.5-3.5-1-41 2.5-3.5 7-2h7zm-12 83h19l4.5 1q2 3 1 10.5l-1 3.5q-4.1 1.9-12.5 1l-1-1h-10l-2.5-2.5v-10zm124 5h179l1 1h63l1 1h14l14 7 9.5 8.5 8 15v4l3 9 2 15 1 1v9l-2.5 2.5h-36l-5.5-4.5-1-17-4.5-8.5-2-1h-239l-4.5 5.5v24l.5 1.5h-41l-3.5-2.5-1-4v-17l1-1v-7l3-11q4.8-12.2 14.5-19.5l12-7zm-95 108h28l.5 1.5 6 10 4 16v8l1 1v22l-4 16-8 16.5h-25.5l-.5-1.5 4-8 3-12 2-27-1-1v-11l-1-1-2-14zm308 1q4-1 5 1H563l4 8.5 5 16 1 10 1 1v16l-9 37.5-27-.5 6-7 3-6 3-11q-1.5-5.5 1-7v-23l-1-1v-6l-3-13zM18 545h10.5q6.2 2.3 9.5 7.5l6 14 2 19-1 1v9l-3 11-5.5 6.5q-4.5 1-5.5-1.5l4-15v-21l-2-8-5-10-6.5-7.5-3.5-2.5z"/></svg>