<svg xmlns="http://www.w3.org/2000/svg" viewBox="0 0 693 720"><path fill="#024" stroke="#024" d="M483.5 20h40l1 1h12l2.5 2.5 1 3v22l1 1V56q-4.2-1.2-5.5 1h-53l-1-1h-25l-4.5-2-2-3.5-1-9 1-1 1-14 3.5-5.5h28zm78 4 1 1h8l1 1h5l1 1 19 3 24 7 13 6 9.5 8.5q1 6.5-3.5 7.5l-13 4-18 1-1-1h-8l-1-1-27-2q-1-2-5-1l-3.5-2.5-2-4-1-27zm-141 2h3l4.5 2 2 4.5v20l-3.5 5.5-8 2h-10l-1 1-21 1-1 1h-28l-8.5-6.5q.4-8.1 6.5-10.5 10.5-7 24-11l20-5h4l11-3h5zm-321 11 50 1 1 1h11l1 1h8l1 1 13 1 32 8 5.5 5.5 3 5 4 16v25l-1 1q1.5 9.5-1 15l-6.5 8.5-10 4-11 1-6.5 3.5-1 2v52l1 1v32l1 1V302l-2.5 1h-32l-1-1h-121l-3.5-1-1-3.5-1-36-1-1v-43l-1-1v-45l-1-1v-10l2.5-2.5h7l1-1h42l1 1h26l1 1h30l2.5-2.5 1-17q-2.2-1.2-1-6l-2.5-2.5h-27l-1 1h-84l-1-1q-6.4.9-10-1L9 124.5l-4-8-1-10-1-1v-28l1-1 1-16L7.5 56l12-6 25-7 17-2 1-1h7l1-1 28-1zM332 71l40.5 12h4l5 2h4l11 3h5l1 1 13 1 1 1 16 1 1 1h10l1 1h14l1 1h63l1-1h16l1-1 22-1 1-1h8l1-1h8l1-1h7l1-1 20-2 1-1h5l1-1 22-4 23-8 .5.5-7.5 7.5q-11.8 9.2-27 15l-12 4-22 5h-6l-8 2h-8l-1 1h-12l-1 1h-23l-1 1h-52l-1-1h-21l-1-1h-13l-1-1-19-1-1-1-14-1-1-1h-5l-1-1h-5l-1-1-14-2-31-10-14-8-6.5-6.5zm-25.5 59 19 15 18 9 25 9 19 5h4l5 2 15 2 6 2 12 1 1 1h7l1 1h7l1 1h9l1 1h10l1 1h15l1 1h50l1-1h17l1-1h11l1-1 18-1 1-1h6l1-1 18-2 30-7 20-7 16-8 15-12 .5 6.5-1 1v9l-2 8-6 8.5-11.5 8-16 8-24 8-22 5-21 2-1 1-30 1-1 1h-83q-1 2-5 1-1.2-2.2-6-1l-3.5 2.5-1 14 1 1v9l3 10 5.5 6.5 10 3 13 1 1 1h45l1-1 9-1 12-5 8.5-8.5 4-9 1-9 2.5-2.5 2-1h12l1 1h8l1 1 11 1 17 5q17.1 6.9 27.5 20.5l6 11 4 15 1 15 1 1v16l1 1v24l-1 1-1 26-1 1v6l-4 16q-8.9 24.1-26.5 39.5l-18 13-16 8-21 7-13 2-1 1h-6l-1 1h-9l-1 1h-30l-1-1h-9l-1-1h-6l-1-1-9-1-21-6-15-7-21-16-5-1q-4 1.5-2.5 8.5l14 27 1 5.5h-26.5l-8.5 6.5-4 9-1 10-1 1v48l-1.5 1.5-3 1h-14l-1 1h-15l-1 1h-17l-1 1-64 1-1-1-21-1-7-2-5.5-3.5v-72l1-1 1-20 1-1v-6l1-1 2-14 7-21 8-16q8.3-13.7 19.5-24.5 18.8-17.7 44-29l19-7 8-1 1-1h6l2.5 1 2 17.5 6 18 13 24 14.5 15.5 9 5 6 1q4.6-1.9 3.5-9.5l-5-5-11-20-12-32-1-8-2-5-1-11-1-1v-8l-1-1-1-46 1-1v-54l-2.5-5.5q-9.4-4.6-22-6l-3-2-13-4q-19.4-7.6-31.5-22.5l-7-14zM600 253l-23 12-12 4-13 3h-5l-1 1h-5l-1 1-26 1-1 1-40-2-1-1-17-2-16-5q-1 5 2 8 5 7 14 10l17 5 12 1 1 1h8l1 1h41l1-1 13-1 22-6 15-8q10-7 14-20z"/><path fill="#024" stroke="#024" d="M16.5 325h183l8 2 5.5 5.5 1 3v82l-5.5 4.5-25 2-3.5 3.5-1 2v12q-2 1-1 5l1 1v10l2 8q2.5 8 8.5 12.5l11 4 13 1 5.5 3.5v8l1 1v37q3.3 14.8 13.5 22.5l9 5 7 2h7l1 1h39l1-1h55l5.5 3.5-1 51q2 1 1 5l4.5 5.5 8 3h7l8-2 6.5-4.5 1-4v-22l-1-1-1-30 3.5-4.5 4-1h35l1 1h7l7 2 3.5 3.5 2 5v44l1 1v36l1 1v56l-2.5 5.5-7 3-34 1-1-1-10-1-7.5-5.5q-2.4-5.1-1-14l-1-1v-23q2.5-1.5 1-7l-2.5-3.5-2-1h-54l-1 1h-33l-1 1h-11l-4-1-4.5 2.5q-2.5 3.5-1 11l5.5 8.5 10 4h49l1-1H358l2 6.5v5l-3 9-4.5 4.5-7 2h-13l-1 1h-36l-1-1h-13l-4-1-5-2-8.5-6.5-4-11v-23l-3.5-5.5-7-3-29-1-1-1h-12l-1-1-17-1-1-1h-5l-1-1-17-3-18-6-22-10-23-14q-17-12-30.5-27.5l-17-24q-10.4-18.1-17-40l-5-20-2-16-1-1v-6l-1-1-1-17-1-1v-13l-1-1v-19l1-1v-8l-2.5-5.5-15-5-3.5-3.5-5-14v-7l-1-1v-22l1-1v-13l1-1 1-18q1.5-6.9 6.5-10.5z"/><path fill="#69be28" stroke="#69be28" d="M481.5 0h35l1 1 34 1 1 1h9l1 1 16 1 1 1h5l1 1 21 3 28 7 23 8q15.3 5.8 25.5 16.5l6 10 2 8v46l1 1 1 29-12.5 11.5-22 12-20 7-20 5-21 3-1 1-13 1-1 1-18 1-1 1h-11l-1 1h-17l-1 1h-50l-1-1h-15l-1-1-20-1-1-1h-7l-1-1h-7l-7-2h-6l-1-1-20-3-28-7-25-9-18-9q-12.4-7.1-21.5-17.5l-3-7v-43l1-1v-24q3.5-9 10.5-14.5l20-12 22-8 19-5h4l21-5h5l1-1 21-2 1-1 18-1 1-1h13l1-1h21zm2.5 20-1 1h-28l-4 6-1 14-1 1 1 9 2 3 5 2h25l1 1h53q1-2 5-1v-6l-1-1V27l-1-3-2-3h-12l-1-1zm78 4-2 2 1 27 2 4 4 2q3-1 5 1l27 2 1 1h8l1 1 18-1 13-4q4-1 3-7l-9-9-13-6-24-7-19-3-1-1h-5l-1-1h-8zm-141 2-1 1h-5l-11 3h-4l-20 5q-14 4-24 11-7 2-7 11l9 6h28l1-1 21-1 1-1h10l8-2 3-5V33l-2-5-4-2zm-89 45v3l7 6 14 8 31 10 14 2 1 1h5l1 1h5l1 1 14 1 1 1 19 1 1 1h13l1 1h21l1 1h52l1-1h23l1-1h12l1-1h8l8-2h6l22-5 12-4q15-6 27-15l7-7v-1l-23 8-22 4-1 1h-5l-1 1-20 2-1 1h-7l-1 1h-8l-1 1h-8l-1 1-22 1-1 1h-16l-1 1h-63l-1-1h-14l-1-1h-10l-1-1-16-1-1-1-13-1-1-1h-5l-11-3h-4l-5-2h-4zm267.5 182 .5 2.5q-4.3 13.2-14.5 20.5l-15 8-22 6-13 1-1 1h-41l-1-1h-8l-1-1-12-1-17-5q-8.7-3.2-13.5-10.5-2.7-2.7-2-7.5l15.5 5 17 2 1 1 40 2 1-1 26-1 1-1h5l1-1h5l13-3 12-4z"/></svg>