<svg xmlns="http://www.w3.org/2000/svg" viewBox="0 0 681 708"><path fill="#024" d="M54 60h156v3h5.5l.5 3h6v3h3v3h3q-1.5 4.5 3 3v9l3 .5V135h-3v6q-4.5-1.5-3 3h-6v3h-17.5l-.5 3h-3v42l3 .5V303H54v-3l-3-.5v-128l-3-.5v-3h86.5l1-3H147q-1.5-4.5 3-3v-6h3v-6h-3l-.5-3H39v-3h-6q1.5-4.5-3-3v-6l-3-.5v-26l-3-1V81h3v-6h3v-6q4.5 1.5 3-3h6l.5-3h14zm249 84h3v3q4.5-1.5 3 3h6v3q4.5-1.5 3 3h6v3q4.5-1.5 3 3h6v3h9v3h9v3h9v3h9l.5 3h11l1 3h14l1 3h20l1 3h20l1 3H540l.5-3h23l1-3h17l1-3h14l.5-3h9v-3h9v-3h9v-3h6v-3h5.5l.5-3h6v-3q4.5 1.5 3-3h6v-6h3v23.5l-3 .5v3h-3v6q-4.5-1.5-3 3h-6v3q-4.5-1.5-3 3h-5.5l-.5 3h-6v3h-9v3h-9v3h-9l-.5 3h-11l-1 3h-17l-1 3h-23l-1 3H450q1.5-4.5-3-3v3l-3 .5V240h3v6q4.5-1.5 3 3h6l.5 3H522v-3h5.5l.5-3h6v-6h3v-6l3-.5v-11l3-.5v-3h21l.5 3h17l.5 3h9v3h6v3h5.5l.5 3h6v3h3v3h3v3h3q-1.5 4.5 3 3v6h3v6l3 .5v11l3 1v20l3 1V336l-3 .5v23l-3 .5v8.5l-3 .5v8.5l-3 .5v6h-3q1.5 4.5-3 3v6h-3q1.5 4.5-3 3v6h-3v3h-3v3q-4.5-1.5-3 3h-6v3h-3v3q-4.5-1.5-3 3h-6v3h-6v3h-6v3h-9l-.5 3H549l-.5 3h-17l-1 3H486l-.5-3h-17l-1-3h-11l-.5-3h-9v-3h-6v-3h-5.5l-.5-3h-6v-3q-4.5 1.5-3-3h-6v-3h-3q1.5-4.5-3-3v9h3v6h3v6h3v6h3v6q4.5-1.5 3 3h-26.5l-.5 3h-6q1.5 4.5-3 3v6l-3 .5v44l-3 1V516H249v-3l-3-.5V423l3-.5v-17l3-.5v-8.5l3-.5v-6h3v-8.5l3-.5v-6h3q-1.5-4.5 3-3v-6h3q-1.5-4.5 3-3v-6h3v-3h3v-3h3v-3h3v-3h3v-3h3v-3q4.5 1.5 3-3h6v-3q4.5 1.5 3-3h6v-3q4.5 1.5 3-3h6l.5-3h8.5v-3h6v-3h11.5l1-3H360v3l3 .5v14l3 .5v9h3v9h3q-1.5 4.5 3 3v9h3v3h3q-1.5 4.5 3 3v6h3v3h3v3h3v3q4.5-1.5 3 3h9q1.5-4.5-3-3v-6h-3v-6h-3q1.5-4.5-3-3v-6h-3v-5.5l-3-.5v-6h-3v-9l-3-.5v-11l-3-1v-17l-3-1V201h-8.5l-.5-3h-9v-3h-9v-3h-9v-3h-5.5l-.5-3h-6v-3q-4.5 1.5-3-3h-6v-3h-3v-3h-3q1.5-4.5-3-3v-5.5l-3-.5v-6h-3zm258 117v3h-6v3h-9v3h-9v3h-17l-1 3h-68l-1-3h-14l-1-3h-9q-1 5 3 3v3h3v3h3v3h9l1 3h11l1 3h23v3h27l1-3h20l1-3h11v-3h6v-3h6v-3h6q-1-4 3-3v-3h3v-3h3q3-9-6-6M36 318h174v3h6q-1.5 4.5 3 3v6l3 .5V408h-6v3h-6l-.5 3H201v-3h-6v3l-6 .5V441l3 .5V453h3v3h3v3q4.5-1.5 3 3h9l.5 3H228v50.5l3 .5v6h3v3h3v3q4.5-1.5 3 3h6l.5 3h104l.5.5v14l3 1V561h-3v6l3 .5V588h3v3q4.5-1.5 3 3h6v3h12v-63h51v3h6q-1.5 4.5 3 3v6l3 .5V678h-3l-.5 3H429l-.5 3H399v-3h-14.5l-.5-3h-3v-11.5l-3-.5v-6h3v-9l-3-.5v-17l-.5-.5H282v3q-4.5-1.5-3 3h3v6q4.5-1.5 3 3h6l.5 3H354v18h-3v6q-4.5-1.5-3 3h-9l-.5 3H315l-.5-3H303l-.5 3H288l-.5-3H270v-3h-3v-3h-3q1.5-4.5-3-3v-6l-3-.5V633h-41.5l-1-3h-20l-1-3h-14l-.5-3h-9v-3h-9v-3h-9v-3h-6v-3h-6v-3h-5.5l-.5-3h-6v-3q-4.5 1.5-3-3h-6v-3q-4.5 1.5-3-3h-6v-3h-3v-3h-3v-3h-3v-3h-3v-3h-3v-3h-3v-3h-3v-3h-3v-3h-3q1.5-4.5-3-3v-6h-3q1.5-4.5-3-3v-6h-3q1.5-4.5-3-3v-6h-3v-6h-3v-9h-3v-6h-3v-9l-3-.5v-11l-3-1v-14l-3-1v-26l-3-1V414h-3l-.5-3H33v-3h-3q1.5-4.5-3-3v-6l-3-.5V330h3v-6q4.5 1.5 3-3h6z"/><path fill="#69be28" d="M447 24h62.5l1 3h32l1 3h20l1 3h14l1 3h11l1 3h11l.5 3h8.5l.5 3h9v3h6v3h5.5l.5 3h6v3h3v3h3v3h3q-1.5 4.5 3 3v9l3 .5v68l3 1V162h-3v-11.5l-3-.5v6h-6v3q-4.5-1.5-3 3h-6v3h-6v3h-6v3h-9v3h-9v3h-9l-.5 3h-14l-1 3h-17l-1 3h-23l-1 3H438l-.5-3h-20l-1-3h-20l-1-3h-14l-1-3h-11l-.5-3h-9v-3h-9v-3h-9v-3h-9v-3h-6v-3q-4.5 1.5-3-3h-6v-3q-4.5 1.5-3-3h-6v-3h-3q1.5-4.5-3-3v9h-3V69.5l3-.5v-6h3v-3q4.5 1.5 3-3h6v-3h6v-3h6v-3h6v-3h6v-3h11.5l.5-3h9l.5-3h14l.5-3h14.5l1-3h20l1-3h35zm15 18v3h-23l-1 3h-3v27h30v-3h15l1 3h35V45h-11l-1-3zm-60 6v3h-14l-1 3h-11l-1 3h-9v3h-9v3h-6q2 5-3 3v3h-3v3h-3q-1 5 3 3v3h3v3h6v3h18l1-3h20l1-3h20v-3h3V48zm132 0v9h3q2 5-3 3v3l3 1v14h15l1 3h29v3h18v-3h6q-1-4 3-3v-9q-4 2-3-3h-3v-3h-6v-3h-9v-3h-9v-3h-11l-1-3h-14l-1-3zM327 90q-1 5 3 3v3h3v3h6l1 3h5v3h6v3h9l1 3h11l1 3h14l1 3h17l1 3h29v3h84l1-3h29l1-3h17l1-3h14v-3h9v-3h9v-3h9v-3h6v-3h6q-1-4 3-3v-3h-9v3h-9v3h-14l-1 3h-17l-1 3h-23l-1 3h-53l-1 3h-35l-1-3h-53l-1-3h-23l-1-3h-17l-1-3h-11l-1-3h-8l-1-3h-8l-1-3zm-93 6 3 .5V123l-3-.5zM24 108l3 .5V129l-3-.5zm177 42 3 .5V192l-3-.5zM51 165h29.5l.5 3H51.5zm54 0h29.5l.5 3h-29.5zm-57 6 3 .5V216l-3-.5zm519 87q4.5-1.5 3 3h-3v6h-3v3h-3v3q-4.5-1.5-3 3h-6v3h-6v3h-6l-.5 3h-11l-1 3h-20l-1 3H480l-.5-3h-23l-1-3h-11l-.5-3h-9v-3h-3v-3h-3v-3q-4.5 1.5-3-3h9l.5 3h14l1 3H519l.5-3h17l.5-3h9v-3h9v-3h6v-3h6zm-213 51h6v3q4.5-1.5 3 3-4.5 1.5-3-3h-6zM21 339l3 .5V381l-3-.5zm201 30 3 .5V402l-3-.5zm-33 45 3 .5V441l-3-.5zm54 39 3 .5V507l-3-.5zm144 48 3 .5V516l-3-.5zm-36 33 3 .5V549l-3-.5zM87 570h3v3h3v3h3v3h3v3h3v3q4.5-1.5 3 3h-3v-3h-3v-3h-3v-3h-3v-3h-3v-3q-4.5 1.5-3-3m354 66 3 .5V669l-3-.5zm-138 42h11.5l.5 3h-11.5z"/><path fill="#f0f9ea" d="M429 24h17.5l.5 3h-17.5zm81 0h17.5l.5 3h-17.5zm33 3h11.5l.5 3h-11.5zm-81 15h41.5l1 3H516v30h-35.5l-1-3H465l-.5 3H435V48h3l.5-3h23zm-60 6h15v27h-3l-.5 3h-20l-1 3h-20l-1 3H354v-3h-6v-3h-3v-3q-4.5 1.5-3-3h3v-3h3v-3q4.5 1.5 3-3h6v-3h9v-3h9l.5-3h11l1-3h14zm132 0h17.5l1 3h14l1 3h11l.5 3h9v3h9v3h6v3h3q-1.5 4.5 3 3v9q-4.5-1.5-3 3h-6l-.5 3H582l-.5-3h-29l-1-3H537V63.5l-3-.5v-3q4.5 1.5 3-3h-3zm105 6h3v3h3v3h3v3q4.5-1.5 3 3h-3v-3h-3v-3h-3v-3q-4.5 1.5-3-3M69 57h50.5l.5 3H69.5zm150 6h3v3h3v3h3v3q4.5-1.5 3 3h-3v-3h-3v-3h-3v-3q-4.5 1.5-3-3m78 9 3 .5V138l-3-.5zm357 12 3 .5V99l-3-.5zm-327 6h6l.5 3h8.5l.5 3h8.5l.5 3h11l1 3h17l1 3h23l1 3h53l1 3H495l.5-3h53l1-3h23l1-3h17l1-3h14l.5-3h8.5l.5-3h8.5l.5-3h3v3h-3v3q-4.5-1.5-3 3h-6v3h-6v3h-9v3h-9v3h-9l-.5 3h-14l-1 3h-17l-1 3h-29l-1 3H435l-.5-3h-29l-1-3h-17l-1-3h-14l-1-3h-11l-.5-3h-9v-3h-6v-3h-5.5l-.5-3h-6v-3h-3v-3q-4.5 1.5-3-3m327 24 3 .5V144l-3-.5zM27 138h3v3h3q-1.5 4.5 3 3v3h-3v-3h-3v-3q-4.5 1.5-3-3m204 0q4.5-1.5 3 3h-3v3h-3q1.5 4.5-3 3v-3h3v-3q4.5 1.5 3-3m-186 9h104.5l.5 3H45.5zm159 0h17.5l.5 3h-17.5zM81 165h23.5l.5 3H81.5zm225 3h3v3h3v3h3v3q4.5-1.5 3 3h-3v-3h-3v-3h-3v-3q-4.5 1.5-3-3m342 12q4.5-1.5 3 3h-3v3h-3q1.5 4.5-3 3v-3h3v-3q4.5 1.5 3-3m-276 24 3 .5V222l-3-.5zm180 9h9v3h-6l-.5 3H540v9l-3 .5V240h-3v3h-3v3q-4.5-1.5-3 3h-9l-.5 3H462v-3h-11.5l-.5-3h-3v-9l-3-.5V216h107.5zm-504 3 3 .5V288l-3-.5zm324 12 3 .5V300l-3-.5zm234 3h3v3h3v3h3v3h3v3q4.5-1.5 3 3h-3v-3h-3v-3h-3v-3h-3v-3q-4.5 1.5-3-3m-402 42 3 .5V303l-3-.5zM39 315h35.5l.5 3H39.5zm42 0h92.5l.5 3H81.5zm99 0h26.5l.5 3h-26.5zm-150 3q4.5-1.5 3 3h-3v3h-3q1.5 4.5-3 3v-3h3v-3q4.5 1.5 3-3m264 15q4.5-1.5 3 3h-3v3h-3v3h-3v3h-3v3h-3v3h-3v3h-3v3h-3q1.5 4.5-3 3v-3h3v-3h3v-3h3v-3h3v-3h3v-3h3v-3h3v-3q4.5 1.5 3-3m-72 12 3 .5V369l-3-.5zM21 381l3 .5V393l-3-.5zm201 21h3v6h-3q1.5 4.5-3 3-1.5-4.5 3-3zm384 0q4.5-1.5 3 3h-3v3h-3q1.5 4.5-3 3v-3h3v-3q4.5 1.5 3-3m-192 6h3v3h3v3q4.5-1.5 3 3h-3q1.5 4.5-3 3v-5.5l-3-.5zm-171 24 3 .5V453l-3-.5zm186 9h3v6h-26.5l-.5-3h23.5zM45 465l3 .5V477l-3-.5zm183 33 3 .5V513l-3-.5zm15 9h3v6q4.5-1.5 3 3h-3q1.5-4.5-3-3zm24 9h119.5l.5 3H267.5zm111 15h11.5l.5 3h-11.5l-.5.5v62l-.5.5H369v-3l6-.5v-59l3-.5zm15 0h26.5l.5 3h-26.5zm-288 57h3v3h3v3q4.5-1.5 3 3h-3v-3h-3v-3q-4.5 1.5-3-3m336 18 3 .5V636l-3-.5zm-210 27h27v27l-3-.5V636h-23.5zm51 0h68.5l.5 3h-68.5zm12 15h47.5l.5 3h-47.5zm51 0h8.5l.5 3h3v18l-3-.5V651h-9zm-87 18h3v3h3v3h3v3q4.5-1.5 3 3h-3v-3h-3v-3h-3v-3q-4.5 1.5-3-3m183 3h3v9h-3v3h-3q1.5 4.5-3 3v-3h3q-1.5-4.5 3-3zm-90 3q4.5-1.5 3 3h-3v3q-4.5-1.5-3 3h-6v-3h6v-3q4.5 1.5 3-3"/></svg>