<svg xmlns="http://www.w3.org/2000/svg" viewBox="0 0 617 720"><path fill="#024" stroke="#024" d="M304.5 0h13l11 3 6 3 26 21 14 8 21 15 26 14 27 12 29 10 3 2 38 12 16 4h4l5 2 28 4 16 4 13 6 8.5 6.5 6 9v11l1 1v36l1 1v79l-1 1v68l-1 1v25l-1 1-1 20-1 1v6l-1 1-3 21-6 19-1 8-7 20-1 7q-18.2 45.8-44 84-25.1 35.9-56.5 65.5-43.9 41.6-98 73l-57 28-18 6q-4-1-5 1h-11l-15-4-30-13q-32.8-15.2-62-34-53.7-34.3-95.5-80.5-27.8-30.7-49-68l-14-28-9-22-15-47-5-22v-4l-1-1v-5l-1-1-1-14-1-1v-8l-1-1v-12l-1-1-1-56-1-1v-41l-1-1v-65l1-1 1-46q4.2-13.8 14.5-21.5l12-6 91-20 33-11 25-10q26.5-11.5 50-26l37-24 21-17 10-5 8-1zM241 163l-2 1-8 11-22 46q-30 52-57 109l-9 21-9 26-5 21-1 12-1 1v31l1 1v6l4 16 8 19 16 24q15 17 36 29l15 7 12 4 10 1 1 1h32l1-1h7l1-1 15-2 13-4 12-6 15-11q13-13 23-29l7-15 6-22v-10l-1-2-3-4h-74l-9-4q-4-2-5-6l1-9 9-20 20-32 26-36 8-16v-12l-5-12-76-132q-4-2-12-1Zm233 8-5 2-4 4-6 12-127 199-7 12v5l5 4 6 2h55l1 1h7l9 4 2 5-3 20-6 24-10 32v3l-3 7-1 7-2 4-6 24v8q2 4 8 5l5-1 8-8 42-62 55-76 28-43 10-19-1-6-5-4q-5 1-5-1h-55l-3-1q-6-3-8-9v-9l4-16v-5l3-11v-4l1-1v-5l4-16 4-24 2-5 1-9 2-5 1-9 6-23-2-8-6-4z"/><path fill="#69be28" stroke="#69be28" d="M473.5 171h4l6.5 3.5 2 8-6 23-1 9-2 5-1 9-2 5-4 24-4 16v5l-1 1v4l-3 11v5l-4 16v9q2.3 6.2 7.5 9.5l3 1h55q1 2 5 1l5.5 3.5 1 6-10 19-28 43-55 76-42 62-8.5 8.5-5 1q-5.4-1.1-7.5-5.5v-8l6-24 2-4 1-7 3-7v-3l10-32 6-24 3-20-2-4.5-9.5-4h-7l-1-1h-55l-6-2-4.5-4.5v-5l7-12 127-199 6-12 3.5-3.5zm-140 345 .5.5-8.5 8.5-.5-.5z"/><path fill="#eef4ef" stroke="#eef4ef" d="M241.5 163q9.8-1.7 12.5 3.5l72 124 7 15 1 12-7 16-26 36-18 28-12 25q-2 4-1 11l5.5 6.5 7 3h74l4.5 3.5 1 9-6 24-8 17q-11 19-27.5 32.5l-18 11-23 7h-5l-7 2h-8l-1 1h-26l-1-1-11-1-16-5-16-8Q171 524.5 158 509.5l-15-21-10-22-4-15-1-12-1-1v-25l1-1 1-14 5-21 7-21 10-24 25-51 37-68 20-42 5.5-7.5z"/></svg>