<svg xmlns="http://www.w3.org/2000/svg" viewBox="0 0 621 714"><path fill="#024" d="M306 21h11.5l.5 3h11.5l.5 3h6v3q4.5-1.5 3 3h6v3h3v3h3v3q4.5-1.5 3 3h6v3q4.5-1.5 3 3h6v3h3v3q4.5-1.5 3 3h5.5l.5 3h6v3q4.5-1.5 3 3h6v3h6v3h6v3h6v3h6v3h6v3h6v3h6v3h9v3h6v3h9v3h9v3h9v3h9v3h9v3h9l.5 3h11l1 3h14l1 3h17l1 3h14l.5 3h9v3h5.5l.5 3h6v3h3v3h3q-1.5 4.5 3 3v8.5l3 .5v6l-3 .5V219l3 .5V255h-3v6l3 .5V288q-4.5-1.5-3 3l3 .5V312l-3 .5V333l3 .5V351l-3 .5v26l-3 1v17l-3 1v14l-3 .5v3h-3v3q4.5-1.5 3 3l-3 .5v11l-3 .5v9h-3q1.5 4.5-3 3v8.5l-3 .5v9h-3v6h-3v6h-3v6h-3v6h-3v6h-3v6h-3v6h-3v6h-3v6h-3q1.5 4.5-3 3v6h-3q1.5 4.5-3 3v6h-3v3h-3q1.5 4.5-3 3v6h-3v3h-3q1.5 4.5-3 3v6h-3v3h-3v3h-3v3h-3v3h-3v3h-3v3h-3v3h-3v3h-3v3h-3v3h-3v3h-3v3h-3v3h-3v3h-3v3h-3v3h-3v3q-4.5-1.5-3 3h-6v3h-3v3h-3v3q-4.5-1.5-3 3h-6v3q-4.5-1.5-3 3h-6v3h-3v3q-4.5-1.5-3 3h-6v3q-4.5-1.5-3 3h-6v3q-4.5-1.5-3 3h-5.5l-.5 3h-6v3q-4.5-1.5-3 3h-6v3h-6v3h-6v3h-6v3h-6v3h-6v3h-6v3h-6v3h-8.5l-.5 3h-9l-.5 3h-11l-.5 3h-9v-3h-11.5l-.5-3h-9v-3h-6v-3h-6v-3h-6v-3h-9v-3h-6v-3h-5.5l-.5-3h-6v-3q-4.5 1.5-3-3h-6v-3h-5.5l-.5-3h-6v-3q-4.5 1.5-3-3h-6v-3h-6v-3q-4.5 1.5-3-3h-6v-3h-3v-3q-4.5 1.5-3-3h-6v-3h-3v-3q-4.5 1.5-3-3h-6v-3h-3v-3h-3v-3q-4.5 1.5-3-3h-6v-3h-3v-3h-3v-3h-3v-3h-3v-3h-3v-3h-3v-3h-3v-3h-3v-3h-3v-3h-3v-3h-3v-3h-3v-3h-3v-3q-4.5 1.5-3-3h-3v-3h-3v-6h-3v-3h-3q1.5-4.5-3-3v-6h-3v-3h-3q1.5-4.5-3-3v-6h-3q1.5-4.5-3-3v-6h-3q1.5-4.5-3-3v-6h-3v-5.5l-3-.5v-6h-3q1.5-4.5-3-3v-6h-3v-9h-3v-6h-3v-6h-3v-9h-3v-6h-3v-9h-3v-9l-3-.5v-11l-3-.5v-9l-3-.5v-11l-3-1v-14l-3-1v-23l-3-1v-29l-3-1V150h3v-6h3v-3h3q-1.5-4.5 3-3v-3h5.5l.5-3h6v-3h11.5l1-3h11l1-3h14l1-3h14l.5-3h11.5l1-3h11l1-3h11l.5-3h9v-3h9v-3h9v-3h6v-3h9v-3h6v-3h9v-3h6v-3h6v-3h6v-3h5.5l.5-3h6v-3q4.5 1.5 3-3h5.5l.5-3h6v-3h3v-3q4.5 1.5 3-3h5.5l.5-3h6v-3q4.5 1.5 3-3h6v-3q4.5 1.5 3-3h6v-3h3v-3h3v-3q4.5 1.5 3-3h6v-3h6l.5-3h8.5zm-57 150v3h-6v6l-3 1v5h-3v9q-4-1-3 3h-3v3h-3v9h-3v6h-3v6h-3v6h-3v6q-4-1-3 3h-3v6l-3 1v5h-3v6h-3v6h-3v6h-3v6h-3v6h-3v6q-4-1-3 3h-3v6l-3 1v5h-3v6h-3v6h-3v9h-3v6h-3v6q-4-1-3 3h-3v6h-3v9h-3v6h-3v9l-3 1v11l-3 1v23h-3v33l3 1v11l3 1v11h3v9h3v6h3v6q5-1 3 3h3v6q5-1 3 3h3v6q5-1 3 3h3v3h3v3h3v3h6q-1 5 3 3v3h6q-1 5 3 3v3h9v3h6l1 3h8v3h6v3h51l1-3h11l1-3h11v-3h6v-3h6q-1-4 3-3v-3h3v-3h6q-1-4 3-3v-3h3v-3h3v-3h3v-6q5 2 3-3h3v-6h3v-6h3v-6h3v-9h3v-9h3v-17l-6-1v-3h-62l-1-3h-9q2-4-3-3v-3h-3v-14l3-1v-8l3-1v-6q5 2 3-3h3v-6q5 2 3-3h3v-6h3v-6q5 2 3-3h3v-6h3v-6h3v-6h3v-6q5 2 3-3h3v-6h3v-6q5 2 3-3h3v-6h3v-6h3v-9h-3v-6h-3v-6h-3v-6h-3v-6h-3v-6q-4 2-3-3h-3v-6h-3v-6h-3v-6h-3v-6q-4 2-3-3h-3v-6h-3v-6h-3v-6q-4 2-3-3h-3v-6h-3v-6h-3v-6q-4 2-3-3h-3v-6h-3v-6q-4 2-3-3h-3v-6h-3v-6q-4 2-3-3h-3v-3zm213 9q2 5-3 3v3h-3v6q-4-1-3 3h-3v6l-3 1v5q-4-1-3 3h-3v6q-4-1-3 3h-3v6l-3 1v5q-4-1-3 3h-3v6q-4-1-3 3h-3v6q-4-1-3 3h-3v6l-3 1v5q-4-1-3 3h-3v6q-4-1-3 3h-3v6l-3 1v5q-4-1-3 3h-3v6q-4-1-3 3h-3v6q-4-1-3 3h-3v6q-4-1-3 3h-3v6l-3 1v5q-4-1-3 3h-3v6q-4-1-3 3h-3v6q-4-1-3 3h-3v6l-3 1v5q-4-1-3 3h-3v6q-4-1-3 3h-3v6q-4-1-3 3h-3v6h-3v12h6l1 3h62v3h6q-1 5 3 3v12l-3 1v11l-3 1v11l-3 1v11l-3 1v14l-3 1v11l-3 1v11l-3 1v11l-3 1v14h-3v12h6v3q5 2 3-3h3v-3h3v-3h3v-3h3v-6q5 2 3-3h3v-6q5 2 3-3h3v-6q5 2 3-3h3v-3h3v-6q5 2 3-3h3v-6q5 2 3-3h3v-6q5 2 3-3h3v-3h3v-6h3v-6q5 2 3-3h3v-3h3v-6h3v-6q5 2 3-3h3v-6q5 2 3-3h3v-6q5 2 3-3h3v-3h3v-6q5 2 3-3h3v-6q5 2 3-3h3v-3h3v-6q5 2 3-3h3v-6q5 2 3-3h3v-6q5 2 3-3h3v-6q5 2 3-3h3v-6q5 2 3-3h3v-9h-3v-3h-3v-3h-59l-1-3h-3v-3h-3v-14l3-1v-17l3-1v-15h3v-14l3-1v-17l3-1v-15h3v-14l3-1v-14l3-1v-6h3v-9q-4 2-3-3h-3v-3z"/><path fill="#69be28" d="m597 159 3 .5V219l-3-.5zm-135 21h9v3h3q-1.5 4.5 3 3v9h-3v6l-3 .5v14l-3 1v14l-3 .5v14.5l-3 1v17l-3 1v14l-3 .5v14.5l-3 1v17l-3 1V327h3v3h3l.5 3h59l.5 3h3v3h3v9h-3q1.5 4.5-3 3v6h-3q1.5 4.5-3 3v6h-3q1.5 4.5-3 3v6h-3q1.5 4.5-3 3v6h-3q1.5 4.5-3 3v6h-3v3h-3q1.5 4.5-3 3v6h-3q1.5 4.5-3 3v6h-3v3h-3q1.5 4.5-3 3v6h-3q1.5 4.5-3 3v6h-3q1.5 4.5-3 3v5.5l-3 .5v6h-3v3h-3q1.5 4.5-3 3v5.5l-3 .5v6h-3v3h-3q1.5 4.5-3 3v6h-3q1.5 4.5-3 3v6h-3q1.5 4.5-3 3v6h-3v3h-3q1.5 4.5-3 3v6h-3q1.5 4.5-3 3v6h-3q1.5 4.5-3 3v6h-3v3h-3v3h-3v3h-3q1.5 4.5-3 3v-3h-6v-12l3-.5v-14l3-1v-11l3-.5v-11.5l3-1v-11l3-1v-14l3-1v-11l3-1v-11l3-1v-11l3-1V411q-4.5 1.5-3-3h-6l-.5-3h-62l-.5-3h-6v-12h3v-6h3q-1.5-4.5 3-3v-6h3q-1.5-4.5 3-3v-6h3q-1.5-4.5 3-3v-5.5l3-.5v-6h3q-1.5-4.5 3-3v-6h3q-1.5-4.5 3-3v-6h3q-1.5-4.5 3-3v-5.5l3-.5v-6h3q-1.5-4.5 3-3v-6h3q-1.5-4.5 3-3v-6h3q-1.5-4.5 3-3v-6h3q-1.5-4.5 3-3v-5.5l3-.5v-6h3q-1.5-4.5 3-3v-6h3q-1.5-4.5 3-3v-5.5l3-.5v-6h3q-1.5-4.5 3-3v-6h3q-1.5-4.5 3-3v-6h3q-1.5-4.5 3-3v-5.5l3-.5v-6h3q-1.5-4.5 3-3v-6h3q-1.5-4.5 3-3v-5.5l3-.5v-6h3q-1.5-4.5 3-3v-6h3v-3q4.5 1.5 3-3m135 132 3 .5V333l-3-.5zM168 495h3v3h3v3h3v3h3v3q4.5-1.5 3 3h-3v-3h-3v-3h-3v-3h-3v-3q-4.5 1.5-3-3m168 3q4.5-1.5 3 3h-3v3h-3v3h-3v3h-3q1.5 4.5-3 3v-3h3v-3h3v-3h3v-3q4.5 1.5 3-3m156 81q4.5-1.5 3 3h-3v3h-3q1.5 4.5-3 3v-3h3v-3q4.5 1.5 3-3m-36 33q4.5-1.5 3 3h-3v3h-3q1.5 4.5-3 3v-3h3v-3q4.5 1.5 3-3"/><path fill="#f0f9ea" d="M342 30h3v3h3v3h3v3q4.5-1.5 3 3h-3v-3h-3v-3h-3v-3q-4.5 1.5-3-3m234 99h6v3q4.5-1.5 3 3-4.5 1.5-3-3h-6zm12 6h3v3h3v3q4.5-1.5 3 3h-3v-3h-3v-3q-4.5 1.5-3-3M21 150l3 .5v188l3 1V360l-3-.5v-17l-3-1zm225 24h11.5l.5 3h3v6h3v5.5l3 .5v6h3q-1.5 4.5 3 3v6h3v5.5l3 .5v6h3q-1.5 4.5 3 3v6h3v5.5l3 .5v6h3q-1.5 4.5 3 3v6h3v5.5l3 .5v6h3q-1.5 4.5 3 3v6h3v6h3v6h3v5.5l3 .5v6h3q-1.5 4.5 3 3v6h3v6l3 .5v8.5h-3v6h-3q1.5 4.5-3 3v6h-3q1.5 4.5-3 3v6h-3v6h-3v5.5l-3 .5v6h-3q1.5 4.5-3 3v6h-3v5.5l-3 .5v6h-3q1.5 4.5-3 3v6h-3q1.5 4.5-3 3v6h-3v6h-3v6h-3v5.5l-3 .5v6h3v6h3v3h3v3h3l.5 3h65l.5 3h6q-1.5 4.5 3 3v9l-3 .5v11l-3 .5v9h-3v9h-3q1.5 4.5-3 3v5.5l-3 .5v6h-3v3h-3v3h-3v3h-3v3h-3v3h-3q1.5 4.5-3 3v3h-3v3h-6v3h-6v3h-6l-.5 3h-11l-1 3h-14l-1 3H231v-3h-6v-3h-8.5l-.5-3h-8.5l-.5-3h-6v-3h-6v-3q-4.5 1.5-3-3h-6v-3h-3v-3h-3v-3h-3v-3h-3v-3h-3v-3h-3v-3h-3q1.5-4.5-3-3v-6h-3v-6h-3v-6h-3v-6h-3v-9l-3-.5v-14l-3-.5v-9l-3-.5V411l3-.5v-26l3-1v-14l3-.5v-9h3v-9h3v-6h3v-6h3v-6h3v-6h3v-6h3v-6h3v-6h3v-6h3v-6h3v-6h3v-6h3v-6h3v-6h3v-6h3v-6h3q-1.5-4.5 3-3v-6h3v-6h3v-6h3v-6h3v-6h3v-6h3v-6h3v-5.5l3-.5v-6h3q-1.5-4.5 3-3v-6h3v-6h3v-6h3v-6q4.5 1.5 3-3m354 48 3 .5V345l-3-.5zm-3 135 3 .5V372l-3-.5zm-18 87q4.5-1.5 3 3h-3v6h-3v-6q4.5 1.5 3-3m-54 99q4.5-1.5 3 3h-3v3h-3q1.5 4.5-3 3v-3h3v-3q4.5 1.5 3-3m-429 3h3v3h3v3q4.5-1.5 3 3h-3v-3h-3v-3q-4.5 1.5-3-3m417 12q4.5-1.5 3 3h-3v3h-3v3h-3v3h-3v3h-3v3h-3q1.5 4.5-3 3v-3h3v-3h3v-3h3v-3h3v-3h3v-3q4.5 1.5 3-3m-405 3h3v3h3v3h3v3h3v3h3v3h3v3h3v3h3v3h3v3h3v3h3v3h3v3h3v3h3v3h3v3h3q-1.5 4.5 3 3v3h-3v-3h-3v-3h-3v-3h-3v-3h-3v-3h-3v-3h-3v-3h-3v-3h-3v-3h-3v-3h-3v-3h-3v-3h-3v-3h-3v-3h-3q1.5-4.5-3-3v-3h-3zm375 27q4.5-1.5 3 3h-3v3h-3v3h-3v3h-3v3h-3v3h-3v3h-3v3h-3q1.5 4.5-3 3v-3h3v-3h3v-3h3v-3h3v-3h3v-3h3v-3h3v-3q4.5 1.5 3-3m-318 27h3v3h3v3q4.5-1.5 3 3h-3v-3h-3v-3q-4.5 1.5-3-3m12 9h3v3h3v3q4.5-1.5 3 3h-3v-3h-3v-3q-4.5 1.5-3-3"/></svg>