<svg xmlns="http://www.w3.org/2000/svg" viewBox="0 0 732 672"><path fill="#024" d="M306 24h113.5l1 3h29l1 3h17l1 3h17l1 3h14l1 3h11l1 3h11l1 3h11l.5 3h9v3h9v3h9v3h6v3h9v3h6v3h6v3h6v3h6v3h6v3h6v3h6v3q4.5-1.5 3 3h6v3q4.5-1.5 3 3h6v3h3v3q4.5-1.5 3 3h6v3h3v3h3v3h3v3h3v3h3v3h3v3h3v3h3v3q4.5-1.5 3 3h3v3h3v6h3q-1.5 4.5 3 3v6h3v6h3v6h3v6h3v9l3 .5v11l3 1V276h-3v11.5l-3 .5v6h-3v6h-3v6h-3v3h-3q1.5 4.5-3 3v6h-3v3h-3v3q-4.5-1.5-3 3h-6v3h-3v3h-3v3q-4.5-1.5-3 3h-6v3q-4.5-1.5-3 3h-5.5l-.5 3h-6v3q-4.5-1.5-3 3h-6v3h-6v3h-6v3h-6v3h-6v3h-9v3h-6v3h-9v3h-9v3h-9v3h-9l-.5 3h-11l-.5 3h-9l-.5 3h-14l-1 3h-14l-.5 3h-14.5l-1 3h-20l-1 3h-26l-1 3h-47l-1 3H345l-.5-3h-47l-1-3h-23l-1-3h-20l-1-3h-14l-1-3h-14l-1-3h-11l-1-3h-11l-.5-3h-9v-3h-9v-3h-9v-3h-9v-3h-9v-3h-9v-3h-6v-3h-6l-.5-3H123v-3h-6v-3h-5.5l-.5-3h-6v-3q-4.5 1.5-3-3h-5.5l-.5-3h-6v-3q-4.5 1.5-3-3h-6v-3q-4.5 1.5-3-3h-6v-3h-3v-3h-3v-3q-4.5 1.5-3-3h-6v-3h-3v-3h-3q1.5-4.5-3-3v-6h-3v-3h-3q1.5-4.5-3-3v-6h-3q1.5-4.5-3-3v-6h-3v-6h-3v-11.5l-3-1V192l3-.5v-17l3-.5v-9h3v-6h3v-5.5l3-.5v-6h3q-1.5-4.5 3-3v-6h3v-3h3v-3h3q-1.5-4.5 3-3v-6h3v-3h3v-3h3v-3q4.5 1.5 3-3h6v-3h3v-3h3v-3q4.5 1.5 3-3h6v-3h3v-3q4.5 1.5 3-3h6v-3q4.5 1.5 3-3h5.5l.5-3h6v-3q4.5 1.5 3-3h6v-3h6v-3h6v-3h9v-3h6v-3h6v-3h9v-3h9v-3h6v-3h11.5l.5-3h9l.5-3h11l.5-3h11.5l1-3h14l1-3h14l1-3h20l1-3h26zm30 51v3h-11l-1 3h-8l-1 3h-6q2 5-3 3v6h-3q-1 5 3 3v6q5-1 3 3h3v3h6v3h6l1 3h8l1 3h14v3h36l1-3h11v-3h9v-3h6v-3h6v-3h6q-1-4 3-3v-6h3q2-4-3-3v-6q-4 2-3-3h-6v-3h-6v-3h-12v-3zM231 96v3h-9v3h-6v3h-8l-1 3h-6v3h-6q2 5-3 3v3h-3v12q5-1 3 3h6v3h9v3h9v3h9l1 3h11l1 3h11l1 3h23v3h6l1-3h14l1-3h8v-3h3v-3h3v-15q-4 2-3-3h-3v-3h-3v-3h-6v-3h-6v-3h-6v-3h-6v-3h-6v-3h-9v-3h-11l-1-3zm246 0v3h-9v3h-9v3h-6v3h-6v3h-6q2 5-3 3v3h-6v3h-6q2 5-3 3v3h-3v12q5-1 3 3h3v3h3v3h6v3h48l1-3h11v-3h9v-3h9v-3h9v-3h9v-3h6q-1-4 3-3v-12q-4 2-3-3h-3v-3h-3v-3h-6v-3h-9v-3h-9v-3h-14l-1-3zm-351 21v3h-6v3h-6v3q-4-1-3 3h-3v3h-3v3h-3v3h-3v3h-3v3h-3v3h-3v6h-3v6h-3v6l-3 1v14h-3v21h3v9h3v9h3v6h3v6q5-1 3 3h3v6h3v3q5-1 3 3h3v3h3v3h3v3h3v3h3v3h3v3h6q-1 5 3 3v3h6q-1 5 3 3v3h6q-1 5 3 3v3h6l1 3h5v3h6v3h6v3h6v3h6v3h9v3h6v3h9v3h9l1 3h11l1 3h11l1 3h11l1 3h14l1 3h17l1 3h23l1 3h41v3h3l1-3h65l1-3h23l1-3h17l1-3h14l1-3h11l1-3h11v-3h9v-3h9v-3h9v-3h9v-3h6v-3h9v-3h6v-3h6v-3h6v-3h6v-3h6q-1-4 3-3v-3h6q-1-4 3-3v-3h6q-1-4 3-3v-3h3v-3h3v-3h6q-1-4 3-3v-3h3v-3h3v-6q5 2 3-3h3v-3h3v-6q5 2 3-3h3v-6h3v-6h3v-9h3v-11l3-1v-17l-3-1v-11l-3-1v-6h-3v-6h-3v-6q-4 2-3-3h-3v-3h-3v-3h-3v-3h-3v-3h-3v-3h-3v-3h-6q2-4-3-3v-3h-6v-3h-6q-1 5 3 3v3h3v6l3 1v5q5-1 3 3h3v6l3 1v8l3 1v8h3v33h-3v9h-3v6h-3v6q-4-1-3 3h-3v6q-4-1-3 3h-3v3h-3v3h-3v3h-3v3h-6q2 5-3 3v3h-3v3h-6q2 5-3 3v3h-6v3h-6v3h-6v3h-6v3h-6v3h-9v3h-6v3h-9v3h-11l-1 3h-11l-1 3h-11l-1 3h-14l-1 3h-17l-1 3h-20l-1 3h-38l-1 3h-50l-1-3h-38l-1-3h-20l-1-3h-17l-1-3h-11l-1-3h-11l-1-3h-11l-1-3h-9v-3h-9v-3h-6v-3h-9v-3h-6v-3h-6v-3h-6v-3h-6v-3h-6v-3h-6q2-4-3-3v-3h-3v-3h-6v-3h-3q2-4-3-3v-3h-3v-3h-3v-3h-3v-3h-3v-3h-3v-6q-4 2-3-3h-3v-6h-3v-9h-3v-38l3-1v-8l3-1v-6h3v-6q5 2 3-3h3v-6h3q-1-4 3-3v-3h3q3-9-6-6m30 39v3h-6q2 5-3 3v3h-3v3h-3v3h-3v12h3v6q5-1 3 3h3v3h3v3h6l1 3h11v3h12l1-3h14v-3h9v-3h9v-3h9v-3h6q-1-4 3-3v-3h3v-3h3v-9q-4 2-3-3h-3v-3h-9v-3h-9v-3h-14l-1-3zm186 0v3h-8l-1 3h-8l-1 3h-6q2 5-3 3v6h-3v6l3 1v5h6q-1 5 3 3v3h6v3h9v3h48l1-3h11v-3h6q-1-4 3-3v-3h6q-1-4 3-3v-12q-4 2-3-3h-3v-3h-3v-3h-9v-3h-9v-3zm186 0v3h-14l-1 3h-9v3h-6v3h-6q2 5-3 3v6l3 1v5q5-1 3 3h6v3h6v3h6v3h9l1 3h11l1 3h20v3h9l1-3h11v-3h6q-1-4 3-3v-3h3v-6h3v-18q-4 2-3-3h-3v-3h-3v-3h-6v-3zm-261 45v3h-14l-1 3h-11l-1 3h-12v3h-6v3h-8l-1 3h-8l-1 3h-6q2 5-3 3v3h-3v9q5-1 3 3h3v3h6q-1 5 3 3v3h6v3h9l1 3h8v3h24v-3h9v-3h6v-3h9v-3h6v-3h6v-3h6q-1-4 3-3v-3h6q-1-4 3-3v-6h3v-6h-3v-6q-4 2-3-3h-3v-3h-9v-3h-11l-1-3zm183 0v3h-11l-1 3h-6v3h-6q2 5-3 3v3h-3v12q5-1 3 3h3v3h6q-1 5 3 3v3h6l1 3h5v3h6v3h6v3h9l1 3h8v3h18l1-3h14l1-3h8v-3h6v-3h6q-1-4 3-3v-3h3v-3h3v-12q-4 2-3-3h-6v-3h-11l-1-3h-9v-3h-9v-3h-9v-3h-9v-3h-20l-1-3zm-108 36v3h-8l-1 3h-8l-1 3h-6q2 5-3 3v3h-3v3h-3v3h-3v12q5-1 3 3h6v3h9v3h75v-3h15v-3h9v-3h3v-12q-4 2-3-3h-3v-3h-3v-3h-6q2-4-3-3v-3h-9v-3h-9v-3zM78 369q4.5-1.5 3 3h6v3q4.5-1.5 3 3h5.5l.5 3h6v3q4.5-1.5 3 3h6v3h6v3h6v3h6v3h6v3h6v3h9v3h6v3h9v3h9v3h9l.5 3h11l1 3h11l1 3h11l1 3h14l1 3h17l1 3h20l1 3h29l1 3H399l.5-3H429v3l3 .5V474h-3v8.5l-3 .5v6h-3v6h-3v3h-3q1.5 4.5-3 3v6h-3v3h-3v3h-3v3h-3v3h-3q1.5 4.5-3 3v3h-6v3h-3v3q-4.5-1.5-3 3h-6v3q-4.5-1.5-3 3h-6v3h-6v3h-6v3h-9v3h-6v3h-9l-.5 3h-11l-1 3h-14l-1 3H234l-.5-3h-17l-1-3h-11l-1-3h-11l-.5-3h-9v-3h-6v-3h-9v-3h-6v-3h-6v-3h-5.5l-.5-3h-6v-3q-4.5 1.5-3-3h-6v-3q-4.5 1.5-3-3h-6v-3h-3v-3h-3v-3h-3v-3h-3v-3h-3v-3h-3v-3h-3v-3q-4.5 1.5-3-3h-3v-6h-3q1.5-4.5-3-3v-6h-3v-6l-3-.5V465l-3-.5V438h3q-1.5 4.5 3 3v6h3q-1.5 4.5 3 3v6h3v3h3v3h3v3h3v3h3v3h3v3h3v3q4.5-1.5 3 3h6v3q4.5-1.5 3 3h6v3q4.5-1.5 3 3h6v3h6v3h6v3h6v3h6v3h9v3h9v3h9l.5 3h14l1 3h17l1 3H291l.5-3h17l.5-3h9l.5-3h11l.5-3h6v-3h6v-3h6v-3h6v-3q4.5 1.5 3-3h6v-3h3v-3h3q-1.5-4.5 3-3v-6h-6l-.5 3H291l-.5-3h-26l-1-3h-17l-1-3h-14l-1-3h-11l-.5-3h-9v-3h-9v-3h-9v-3h-9v-3h-9v-3h-6v-3h-6v-3h-6v-3h-6v-3h-6v-3h-5.5l-.5-3h-6v-3q-4.5 1.5-3-3h-6v-3q-4.5 1.5-3-3h-6v-3h-3v-3q-4.5 1.5-3-3h-6v-3h-3v-3h-3v-3h-3v-3h-3v-3h-3q1.5-4.5-3-3v-6h-3v-6l-3-.5V375q-4.5 1.5-3-3 4.5 1.5 3-3m546 18h12v3h3v3h3v3h3v3h3v3h3q-1.5 4.5 3 3v6h3q-1.5 4.5 3 3v6h3v6h3v6h3v9l3 .5v14l3 1V486l-3 .5v17l-3 .5v9h-3v9h-3v6h-3v6h-3v5.5l-3 .5v6h-3q1.5 4.5-3 3v6h-3v3h-3v3h-3v3h-3v3h-3v3h-3v3h-3v3h-3v3h-3v3h-3v3h-3v3q-4.5-1.5-3 3h-6v3q-4.5-1.5-3 3h-6v3q-4.5-1.5-3 3h-6v3q-4.5-1.5-3 3h-6v3h-6v3h-6v3h-6v3h-9v3h-6v3h-8.5l-.5 3h-9v3h-9l-.5 3h-11l-.5 3h-11.5l-1 3h-11l-1 3h-14l-1 3H435v-9h3v-3h3v-3h3v-3q4.5 1.5 3-3h6v-3h3v-3h3v-3q4.5 1.5 3-3h6v-3h3v-3h3v-3h3q-1.5-4.5 3-3v-6h3v-3h3q-1.5-4.5 3-3v-6h3q-1.5-4.5 3-3v-6h3v-6h3v-6l3-.5v-11l3-1V537h-3l-.5-3H495q1.5 4.5-3 3v6h-3q1.5 4.5-3 3v6h-3v3h-3v3h-3q1.5 4.5-3 3v6h-3v3h-3v3q-4.5-1.5-3 3h-6v3h-3v3h-3v3q-4.5-1.5-3 3h-6v3h-3v3q-4.5-1.5-3 3h-5.5l-.5 3h-6v3q-4.5-1.5-3 3h-6v3h-6v3h-6v3h-6v3h-9v3h-6v3h-9v3h-9l-.5 3h-11l-1 3h-11l-1 3h-14l-1 3h-23l-1 3H282l-.5-3h-23l-.5-3h-8.5l-.5-3h-6q1.5-4.5-3-3v-6h-3v-9h3v-3h3l.5-3h35l1-3h17l1-3h14l.5-3h9l.5-3h11l.5-3h9v-3h9v-3h6v-3h6v-3h9v-3h6v-3h5.5l.5-3h6v-3q4.5 1.5 3-3h5.5l.5-3h6v-3h3v-3q4.5 1.5 3-3h6v-3h3v-3q4.5 1.5 3-3h6v-3h3v-3h3v-3h3v-3h3q-1.5-4.5 3-3v-6h3v-3h3q-1.5-4.5 3-3v-6h3q-1.5-4.5 3-3v-6h3v-6h3v-6h3v-9l3-.5V471l3-.5V447l-3-.5V432h3l.5-3h17l1-3h14l.5-3h9v3h-6v3h3v3h3v3q4.5-1.5 3 3h3v6h3q-1.5 4.5 3 3v6h3v6h3v6h3v6h3v9h3v9l3 .5v17l3 1V528l-3 .5v17l-3 1v11l-3 .5v9h-3v6h-3v5.5l-3 .5v6h-3v3h-3v3q-4.5-1.5-3 3h9v-3h5.5l.5-3h6v-3q4.5 1.5 3-3h6v-3h3v-3q4.5 1.5 3-3h6v-3h3v-3h3v-3h3v-3h3v-3h3q-1.5-4.5 3-3v-6h3v-3h3q-1.5-4.5 3-3v-6h3v-6h3v-6h3v-6h3v-9l3-.5V465h-3v-11.5l-3-.5v-6h-3v-6h-3v-3h-3v-3h-3v-3h-3v-3h-3v-3h-3v-3h-3v-3q-4.5 1.5-3-3h-6l-.5-3H558v-3h8.5l.5-3h9v-3h9v-3h9v-3h9v-3h9v-3h6v-3h6z"/><path fill="#69be28" d="M348 21h32.5l.5 3h-32.5zm-12 54h62.5l.5 3h11.5l.5 3h6v3h6q-1.5 4.5 3 3v6q4.5-1.5 3 3h-3v6q-4.5-1.5-3 3h-6v3h-6v3h-6v3h-9l-.5 3h-11l-1 3H348v-3h-14.5l-.5-3h-8.5l-.5-3h-6v-3h-6v-3h-3q1.5-4.5-3-3v-6q-4.5 1.5-3-3h3v-6q4.5 1.5 3-3h6l.5-3h8.5l.5-3H336zM231 96h17.5l1 3h11l.5 3h9v3h6v3h6v3h6v3h5.5l.5 3h6v3h3v3h3q-1.5 4.5 3 3v15h-3v3h-3l-.5 3h-8l-1 3h-14l-.5 3h-6l-.5-3h-23l-1-3h-11l-1-3h-11l-.5-3h-9v-3h-9v-3h-9v-3h-6q1.5-4.5-3-3v-12h3v-3q4.5 1.5 3-3h6v-3h6l.5-3h8.5v-3h6v-3h9zm246 0h14.5l1 3h14l.5 3h8.5l.5 3h8.5l.5 3h6v3h3v3h3q-1.5 4.5 3 3v12q-4.5-1.5-3 3h-6v3h-9v3h-9v3h-9v3h-9l-.5 3h-11l-1 3H435v-3h-6v-3h-3v-3h-3q1.5-4.5-3-3v-12h3v-3q4.5 1.5 3-3h5.5l.5-3h6v-3q4.5 1.5 3-3h6v-3h6v-3h6v-3h8.5l.5-3h9zm-345 18q4.5-1.5 3 3h-3v6h-3v3q-4.5-1.5-3 3h-3v6h-3q1.5 4.5-3 3v6h-3v6l-3 .5v8l-3 1V198h3v9h3v6h3q-1.5 4.5 3 3v6h3v3h3v3h3v3h3v3h3v3q4.5-1.5 3 3h3v3h6v3h3v3q4.5-1.5 3 3h5.5l.5 3h6v3h6v3h6v3h6v3h6v3h9v3h6v3h9v3h9l.5 3h11l1 3h11l1 3h11l1 3h17l1 3h20l1 3h38l1 3H387l.5-3h38l1-3h20l1-3h17l1-3h14l1-3h11l1-3h11l1-3h11l.5-3h9v-3h6v-3h9v-3h6v-3h6v-3h6v-3h5.5l.5-3h6v-3q4.5 1.5 3-3h6v-3h3v-3q4.5 1.5 3-3h6v-3h3v-3h3v-3h3v-3h3q-1.5-4.5 3-3v-6h3q-1.5-4.5 3-3v-6h3v-6l3-.5V195l3-.5V162h-3v-8.5l-3-.5v-8.5l-3-.5v-6h-3q1.5-4.5-3-3v-5.5l-3-.5v-6h-3v-3q-4.5 1.5-3-3h6v3h6v3q4.5-1.5 3 3h6v3h3v3h3v3h3v3h3v3h3v3h3q-1.5 4.5 3 3v6h3v6h3v6l3 .5v11l3 1V195l-3 .5v11l-3 .5v9h-3v5.5l-3 .5v6h-3q1.5 4.5-3 3v6h-3v3h-3q1.5 4.5-3 3v6h-3v3h-3v3q-4.5-1.5-3 3h-6v3h-3v3h-3v3q-4.5-1.5-3 3h-6v3q-4.5-1.5-3 3h-6v3q-4.5-1.5-3 3h-6v3h-6v3h-6v3h-6v3h-6v3h-9v3h-6v3h-9v3h-9v3h-9v3h-9l-.5 3h-11l-.5 3h-11.5l-1 3h-14l-1 3h-17l-1 3h-23l-1 3h-65l-.5 3h-3l-.5-3h-41l-1-3h-23l-1-3h-17l-1-3h-14l-1-3h-11l-1-3h-11l-1-3h-11l-.5-3h-9v-3h-9v-3h-6v-3h-9v-3h-6v-3h-6v-3h-6v-3h-6v-3h-5.5l-.5-3h-6v-3q-4.5 1.5-3-3h-6v-3q-4.5 1.5-3-3h-6v-3q-4.5 1.5-3-3h-6v-3h-3v-3h-3v-3h-3v-3h-3v-3h-3v-3h-3q1.5-4.5-3-3v-3h-3v-6h-3q1.5-4.5-3-3v-6h-3v-6l-3-.5V210l-3-.5V201l-3-.5V180h3v-14.5l3-.5v-6h3v-6h3v-6h3v-3h3v-3h3v-3h3v-3h3v-3h3v-3h3q-1.5-4.5 3-3v-3h6v-3h6v-3h6zm531 0h3v3h3v3q4.5-1.5 3 3h-3v-3h-3v-3q-4.5 1.5-3-3m-507 42h41.5l1 3h14l.5 3h9v3h9v3h3q-1.5 4.5 3 3v9h-3v3h-3v3q-4.5-1.5-3 3h-6v3h-9v3h-9v3h-9l-.5 3h-14l-1 3H168v-3h-11.5l-.5-3h-6v-3h-3v-3h-3q1.5-4.5-3-3v-6l-3-.5V171h3v-3h3v-3h3v-3q4.5 1.5 3-3h6zm186 0h47.5l.5 3h9v3h9v3h3v3h3q-1.5 4.5 3 3v12q-4.5-1.5-3 3h-6v3q-4.5-1.5-3 3h-6v3h-11.5l-1 3H339v-3h-9v-3h-6v-3q-4.5 1.5-3-3h-6v-5.5l-3-.5v-6h3v-6q4.5 1.5 3-3h6l.5-3h8.5l.5-3h8.5zm186 0h48v3h6v3h3v3h3q-1.5 4.5 3 3v18h-3v6h-3v3q-4.5-1.5-3 3h-6v3h-11.5l-.5 3h-9l-.5-3h-20l-1-3h-11l-.5-3h-9v-3h-6v-3h-6v-3h-6q1.5-4.5-3-3v-5.5l-3-.5v-6q4.5 1.5 3-3h6v-3h6v-3h9l.5-3h14zm-261 45h14.5l1 3h11l.5 3h9v3h3q-1.5 4.5 3 3v5.5l3 .5v6h-3v6q-4.5-1.5-3 3h-6v3q-4.5-1.5-3 3h-6v3h-6v3h-6v3h-9v3h-6l-.5 3H255l-.5 3H231v-3h-8.5l-.5-3h-9v-3h-6v-3q-4.5 1.5-3-3h-6v-3h-3q1.5-4.5-3-3v-9h3v-3q4.5 1.5 3-3h6l.5-3h8.5l.5-3h8.5v-3h6v-3h11.5l1-3h11l1-3h14zm183 0h11.5l1 3h20l.5 3h9v3h9v3h9v3h9l.5 3H531v3h6q-1.5 4.5 3 3v12h-3v3h-3v3q-4.5-1.5-3 3h-6v3h-6l-.5 3h-8l-1 3h-14l-1 3H477v-3h-8.5l-.5-3h-9v-3h-6v-3h-6v-3h-5.5l-.5-3h-6v-3q-4.5 1.5-3-3h-6v-3h-3q1.5-4.5-3-3v-12h3v-3q4.5 1.5 3-3h6v-3h6l.5-3H450zm-108 36h47.5l.5 3h9v3h9v3q4.5-1.5 3 3h6v3h3v3h3q-1.5 4.5 3 3v12h-3l-.5 3H414l-.5 3H399l-.5 3H324v-3h-9v-3h-6q1.5-4.5-3-3v-12h3v-3h3v-3h3v-3q4.5 1.5 3-3h6l.5-3h8.5l.5-3h8.5zm-15 171h17.5l.5 3h-17.5zm69 0h20.5l.5 3h-20.5zm72 21h6v3h-3v6h-3zm-165 9h14.5l.5 3h-14.5zm84 0h11.5l.5 3h-11.5zm-306 3 3 .5V456l-3-.5zm198 39h11.5l.5 3h-11.5zm162 48q4.5-1.5 3 3h-3v3h-3v3h-3v3h-3v3h-3q1.5 4.5-3 3v-3h3v-3h3v-3h3v-3h3v-3q4.5 1.5 3-3m63 9 3 .5V552l-3-.5zm-252 27h32.5l.5 3h-32.5zm381 3q4.5-1.5 3 3h-3v3h-3v3h-3q1.5 4.5-3 3v-3h3v-3h3v-3q4.5 1.5 3-3m-156 33q4.5-1.5 3 3h-3v3h-3v3h-3v3h-3q1.5 4.5-3 3v-3h3v-3h3v-3h3v-3q4.5 1.5 3-3m-213 6h14.5l.5 3h-14.5zm6 33h11.5l.5 3h-11.5zm168 9h14.5l.5 3h-14.5z"/><path fill="#f0f9ea" d="M318 21h29.5l.5 3h-29.5zm63 0h29.5l.5 3h-29.5zm-96 3h11.5l.5 3h-11.5zm144 0h14.5l.5 3h-14.5zM84 96q4.5-1.5 3 3h-3v3h-3q1.5 4.5-3 3v-3h3v-3q4.5 1.5 3-3m564 3h3v3h3v3h3v3h3v3q4.5-1.5 3 3h-3v-3h-3v-3h-3v-3h-3v-3q-4.5 1.5-3-3m-579 9q4.5-1.5 3 3h-3v3h-3v3h-3v3h-3v3q-4.5-1.5-3 3h-3v-3h3v-3h3v-3h3v-3h3v-3q4.5 1.5 3-3m603 15h3v3h3v3h3v3q4.5-1.5 3 3h-3v-3h-3v-3h-3q1.5-4.5-3-3zm-624 9q4.5-1.5 3 3h-3v3h-3q1.5 4.5-3 3v-3h3v-3q4.5 1.5 3-3m660 63 3 .5V270l-3-.5zm-687 6 3 .5V264l-3-.5zm675 102q4.5-1.5 3 3h-3v3h-3q1.5 4.5-3 3v-3h3v-3q4.5 1.5 3-3m-648 9h3v3h3v3q4.5-1.5 3 3h-3v-3h-3v-3q-4.5 1.5-3-3m636 6q4.5-1.5 3 3h-3v3h-3q1.5 4.5-3 3v-3h3v-3q4.5 1.5 3-3m-618 9h3v3h3v3q4.5-1.5 3 3h-3v-3h-3v-3q-4.5 1.5-3-3m9 39h6v3q4.5-1.5 3 3-4.5 1.5-3-3h-6zm33 18q4.5-1.5 3 3h6v3q4.5-1.5 3 3-4.5 1.5-3-3h-6v-3q-4.5 1.5-3-3m528 3h3v3h3v3h3v3h3v3h3v3q4.5-1.5 3 3h-3v-3h-3v-3h-3v-3h-3v-3h-3v-3q-4.5 1.5-3-3m-555 6h3v3h3v3h3v3h3v3h3v3h3v3h3v3q4.5-1.5 3 3h-3v-3h-3v-3h-3v-3h-3v-3h-3v-3h-3v-3h-3v-3q-4.5 1.5-3-3m195 12h11.5l.5 3h-11.5zm177 0h11.5l.5 3h-11.5zm-147 3h20.5l.5 3h-20.5zm111 0h17.5l.5 3h-17.5zm132 3h6l.5 3h8.5v3h5.5l.5 3h6v3h3v3h3v3h3v3h3q-1.5 4.5 3 3v6h3q-1.5 4.5 3 3v6h3v6l3 .5V468l3 .5V504l-3 .5v11l-3 .5v9h-3v5.5l-3 .5v6h-3q1.5 4.5-3 3v6h-3v3h-3q1.5 4.5-3 3v6h-3v3h-3v3q-4.5-1.5-3 3h-6v3h-3v3h-3v3q-4.5-1.5-3 3h-6v3q-4.5-1.5-3 3h-6v3h-6v3h-6q1.5 4.5-3 3v-6h3q-1.5-4.5 3-3v-6h3v-6h3v-6h3v-6h3v-9l3-.5v-14l3-1V501l-3-.5v-14l-3-.5v-9h-3v-9h-3v-5.5l-3-.5v-6h-3q1.5-4.5-3-3v-5.5l-3-.5v-6h-3v-3h-3q1.5-4.5-3-3v-6q-4.5 1.5-3-3h6l.5-3H531v-3h-6v-3h6l.5 3H546v-3h6v-3q-4.5 1.5-3-3m-441 6h3v3h3v3q4.5-1.5 3 3h-3v-3h-3v-3q-4.5 1.5-3-3m174 18h11.5l.5 3h-11.5zm129 0h20.5l.5 3h-20.5zm-93 3h68.5l.5 3h-68.5zm114 3 3 .5V471l-3-.5zM99 456h3v3h3v3h3v3h3v3h3v3h3v3q4.5-1.5 3 3h-3v-3h-3v-3h-3v-3h-3v-3h-3v-3h-3v-3q-4.5 1.5-3-3m576 9 3 .5V480l-3-.5zm-588 9h3v6q4.5-1.5 3 3h-3q1.5-4.5-3-3zm213 9h56.5l.5 3h-56.5zm-165 3q4.5-1.5 3 3h6v3q4.5-1.5 3 3-4.5 1.5-3-3h-6v-3q-4.5 1.5-3-3m-36 9h3v3h3v3h3v3h3v3h3v3h3v3h3v3h3v3h3q-1.5 4.5 3 3v3h-3v-3h-3v-3h-3v-3h-3v-3h-3v-3h-3v-3h-3v-3h-3v-3h-3q1.5-4.5-3-3zm360 3h3v6h-3q1.5 4.5-3 3-1.5-4.5 3-3zm-45 6q4.5-1.5 3 3h-3v3h-3v3h-3v3h-3v3h-3v3h-3v3h-3q1.5 4.5-3 3v-3h3v-3h3v-3h3v-3h3v-3h3v-3h3v-3q4.5 1.5 3-3m-180 15h47.5l.5 3h-47.5zm213 0q4.5-1.5 3 3h-3v3h-3q1.5 4.5-3 3v-3h3v-3q4.5 1.5 3-3m-300 15q4.5-1.5 3 3h6v3q4.5-1.5 3 3-4.5 1.5-3-3h-6v-3q-4.5 1.5-3-3m276 9q4.5-1.5 3 3h-3v3h-3q1.5 4.5-3 3v-3h3v-3q4.5 1.5 3-3m222 12q4.5-1.5 3 3h-3v3h-3v3h-3q1.5 4.5-3 3v-3h3v-3h3v-3q4.5 1.5 3-3m-405 9h11.5l.5 3h-11.5zm45 0h14.5l.5 3h-14.5zm189 0q4.5-1.5 3 3h-3v3h-3v3h-3v3h-3q1.5 4.5-3 3v-3h3v-3h3v-3h3v-3q4.5 1.5 3-3m21 9q4.5-1.5 3 3h-3v6h-3q1.5 4.5-3 3-1.5-4.5 3-3v-6q4.5 1.5 3-3m126 6q4.5-1.5 3 3h-3v3h-3v3h-3q1.5 4.5-3 3v-3h3v-3h3v-3q4.5 1.5 3-3m-168 3q4.5-1.5 3 3h-3v3h-3q1.5 4.5-3 3v-3h3v-3q4.5 1.5 3-3m33 6q4.5-1.5 3 3h-3v3h-3v3h-3q1.5 4.5-3 3v-3h3v-3h3v-3q4.5 1.5 3-3m-237 18h14.5l.5 3h-14.5zm198 18q4.5-1.5 3 3h-3v3h-3v3h-3v3h-3v3h-3q1.5 4.5-3 3v-3h3v-3h3v-3h3v-3h3v-3q4.5 1.5 3-3m-210 3h3v3h3v3q4.5-1.5 3 3h-3v-3h-3v-3q-4.5 1.5-3-3"/></svg>