<svg xmlns="http://www.w3.org/2000/svg" viewBox="0 0 720 658"><path fill="#024" stroke="#024" d="M339.5 0h37l1 1h22l1 1h14l1 1 20 1 1 1h7l1 1h7l1 1h6l1 1 18 2 11 3 14 2 5 2h4l23 7h3l42 15 37 18q36.6 19.9 64.5 48.5 12.3 13.2 22 29 7.4 12.6 12 28l3 13v6l1 1v19l1 1v42l-1 1v16q-2.2 1.3-1 6l-5 16q-11.6 23.9-31.5 39.5-26.6 21.9-60 37l-37 15-36 11-16 4h-4l-5 2h-4l-5 2-15 2-1 1-18 2-1 1h-6l-1 1h-7l-1 1h-7l-1 1-19 1-1 1h-12l-1 1h-15l-1 1-54 1-1-1h-30l-1-1-28-1-1-1h-10l-1-1h-8l-1-1-21-2-1-1h-5l-1-1h-5l-1-1-24-4-42-11-10-4h-3l-40-15-37-18-32-21L25 300.5l-16-23-6-15-1-8-1-1v-14l-1-1v-34l1-1v-17l1-1 1-16 1-1 1-9 4-11Q24.2 116.2 49.5 94l22-18 39-24 28-13 42-15 39-10h4l16-4h5l1-1h5l1-1 12-1 1-1h7l1-1h7l1-1h9l1-1h10l1-1 37-1zM356 55l-1 1h-15l-1 1h-7l-1 1-10 1-12 4-8 5-5 6q-1 6 2 9l10 7 13 6 14 4 13 1 1 1h20l1-1h8l6-2h4q16-5 30-13l6-7q1-6-2-8l-6-6-15-6-9-1-1-1h-7l-1-1zM222 79q-24 6-42 18l-6 7 1 7 11 6 20 7h3l22 7 15 2 1 1h6l1 1h22l12-3 7-4 6-8v-4l-2-5-8-9-28-15-26-8zm255 0q-30 11-54 27l-6 7-1 4 3 7 9 6 16 5h21l1-1h7l11-3h4l40-12 12-6 3-5-1-6-7-8-14-7-25-7q-5 1-6-1zM117 97q-15 6-25 15-14 11-23 27l-5 11-4 15v21l5 18q9 19 23 34 20 20 46 34l39 19 31 11 34 9 24 4 1 1h5l1 1 21 2 1 1h8l1 1 23 1 1 1h26q1 2 2 0l3 1h8l1-1h30l1-1h12l1-1h10l1-1 16-1 1-1h6l1-1h5l1-1h5l1-1h5l11-3h4l35-9 34-12 32-15q21-12 40-27 15-14 27-31l9-18 5-19v-17l-1-1-1-8-6-15-10-14q-14-18-36-27h-2l14 20 6 12 5 14 1 9 1 1v20l-1 1-1 8q-5 16-15 28-15 17-35 30l-26 14-25 10-43 12-24 4-1 1-18 2-1 1h-7l-1 1h-8l-1 1-21 1-1 1h-17l-1 1h-50l-1-1-29-1-1-1-17-1-1-1h-6l-1-1-18-2-1-1-14-2-5-2-16-3-29-9-31-13-29-17-16-13q-11-9-18-21l-6-12-4-15v-19l6-22 6-12 17-23zm33 43-8 2-12 7q-6 4-8 12v7l4 8 10 8 10 4q4-1 6 1h14l1-1h6l1-1 8-1 23-8 13-7 6-7-1-6-5-6-19-7-14-2-1-1h-6l-1-1h-8l-1-1zm403 0-1 1h-11l-1 1h-7l-1 1-15 2-13 4-8 4-6 7v3l3 5 6 4 12 6 27 8 10 1 1 1h7l1 1h12q0-2 5-1l11-5q8-5 11-16v-7l-3-7-6-7-12-5q-5 1-6-1zm-207 1-1 1-12 1-10 3-7 3-7 5-4 5q-1 6 1 9 6 7 16 11l13 4 11 1 1 1h22l1-1 12-1 18-6 9-6 4-6q1-7-2-9l-7-7-16-6-11-1-1-1zm-92 49-49 13-14 5-9 5-4 7 2 5 8 7 10 6 12 5 13 3h18l14-4 32-15 8-5 5-5 2-6q-1-8-5-11-6-7-16-9-5 1-5-1zm192 0-11 3-9 5q-6 4-9 11-1 5 2 8l7 5 24 13 21 9 8 2h14l1-1h6l1-1 9-1 12-4 13-7q5-4 8-10l-1-6-8-7-19-5-29-10-13-2-1-1h-5l-1-1zm-95 35-1 1h-7l-17 4-15 7-7 5-7 10 1 6q4 5 11 7l17 4h7l1 1h40l1-1h9l1-1h8l1-1 12-1 12-4 4-5q1-9-3-11l-10-9-21-9-9-1-1-1h-7l-1-1zM56 363l5.5 1 32 20 29 14 44 16 34 9h4l5 2 15 2 6 2 11 1 1 1 21 2 1 1h8l1 1h9l1 1 27 1 1 1h69l1-1h15l1-1h11l1-1h17l3.5 5.5 1 20-1 1-1 11-9 21q-12.1 19.4-29.5 33.5-27.6 23.4-67 35l-22 5-12 1-1 1h-9l-1 1h-40l-1-1h-9l-1-1h-7l-1-1-16-2-23-6-27-10-24-12-17-11Q97.8 515.2 86 501.5q-11.6-12.9-19-30l-4-13-1-17 2.5-5.5q4.6.9 6.5 4.5 10.5 20 27.5 33.5l27 19q20.1 11.4 44 19l39 9 16 1 1 1 29 1 1-1h16l1-1 15-1 32-8 24-11q11.8-6.7 20.5-16.5l2-3-2.5-.5-1 1h-13l-1 1h-56l-1-1h-13l-1-1-17-1-1-1-13-1-6-2-15-2-31-8-29-10q-30.9-12.1-57-29-21.3-13.2-38.5-30.5l-11-15-3-9-1-8z"/><path fill="#024" stroke="#024" d="M632.5 381h5l6 3 12.5 11.5q16 17.5 24 43l3 13v7l1 1v25l-1 1v7l-5 21-13 29q-14.9 25.1-36.5 43.5-32.2 28.8-76 46l-29 10-39 10h-4l-16 4h-5l-1 1-22 1-6.5-3.5 1-6 9.5-10.5q20.6-12.9 36.5-30.5 13-14 22-32l6-18 1-16-2-5.5q-7.6-1.1-10 4.5l-18 26-16.5 16.5q-19.4 17.1-43 30l-20 10-25 10-19 6-31 7h-5l-1 1-15 1-1 1h-35l-1-1h-7l-1-1-10-1-9-3q-6.2-2.3-9.5-7.5l-3-10 2-6 2.5-2.5 10-3 28-1 1-1h7l1-1 16-2 24-6 27-9 28-12 25-14q23.8-14.7 42.5-34.5 16.1-16.9 26-40l6-19 2-22-1-1v-7l-4-16 1.5-1.5h5l1-1 15-2 11-3 11-1q18.5 21.5 30.5 49.5l4 11 4 17q-1.5 5.5 1 7v15l1 1-1 1v15l-6 26-9 20-10 14v2.5q34.8-14.4 58-41.5 14.1-15.4 22-37l4-16v-7l1-1v-18l-1-1v-7l-3-13-10-22q-8-12.5-19.5-21.5l-11.5-7.5 39.5-12.5z"/><path fill="#69be28" stroke="#69be28" d="m355.5 55 27 1 1 1h7l1 1 9 1 15 6 6.5 5.5q2.7 2.3 2 8l-6.5 7.5q-13.1 8.4-30 13h-4l-6 2h-8l-1 1h-20l-1-1-13-1-14-4-13-6-9.5-7.5q-3.2-2.3-2-9l4.5-5.5 8-5 12-4 10-1 1-1h7l1-1h15zm-134 24h15l26 8 28 15 8.5 8.5 2 5v4l-6.5 8.5-7 4-12 3h-22l-1-1h-6l-1-1-15-2-22-7h-3l-20-7-10.5-6.5-1-7 5.5-6.5q18.2-11.8 42-18Zm255 0h13q1.2 2.3 6 1l25 7 14 7 7.5 7.5 1 6-3.5 5.5-12 6-40 12h-4l-11 3h-7l-1 1h-21l-16-5-8.5-6.5-3-7 1-4 5.5-6.5q24.2-16.3 54-27Z"/><path fill="#69be28" stroke="#69be28" d="m116.5 97 .5 1.5-17 23-6 12-6 22v19l4 15 6 12q7.2 12.3 17.5 21.5l16 13 29 17 31 13 29 9 16 3 5 2 14 2 1 1 18 2 1 1h6l1 1 17 1 1 1 29 1 1 1h50l1-1h17l1-1 21-1 1-1h8l1-1h7l1-1 18-2 1-1 24-4 43-12 25-10 26-14q20.4-12.6 35.5-30.5 9.7-11.8 15-28l1-8 1-1v-20l-1-1-1-9-5-14-6-12-14-20 1.5.5q22 9.5 36.5 26.5l10 14 6 15 1 8 1 1v17l-5 19-9 18q-11.6 17.9-27.5 31.5-18 15.5-40 27l-32 15-34 12-35 9h-4l-11 3h-5l-1 1h-5l-1 1h-5l-1 1h-6l-1 1-16 1-1 1h-10l-1 1h-12l-1 1h-30l-1 1h-8l-3-1q-1 2-2 0h-26l-1-1-23-1-1-1h-8l-1-1-21-2-1-1h-5l-1-1-24-4-34-9-31-11-39-19Q108 257.5 88 237.5q-14.2-14.3-23-34l-5-18v-21l4-15 5-11q8.8-15.7 22.5-26.5 10.9-9.1 25-15Z"/><path fill="#69be28" stroke="#69be28" d="M149.5 140h18l1 1h8l1 1h6l1 1 14 2 19 7 5.5 5.5 1 6-6.5 7.5-13 7-23 8-8 1-1 1h-6l-1 1h-14q-1.2-2.2-6-1l-10-4-9.5-8.5-4-8v-7q2.1-7.4 7.5-11.5l12-7zm403 0h16q1.3 2.3 6 1l12 5 6.5 6.5 3 7v7q-2.6 11.4-11.5 16.5l-11 5q-4-1-5 1h-12l-1-1h-7l-1-1-10-1-27-8-12-6-5.5-4.5-3-5v-3l5.5-6.5 8-4 13-4 15-2 1-1h7l1-1h11zm-207 1h30l1 1 11 1 16 6 7.5 6.5q2.8 2.7 2 9l-4.5 6.5-9 6-18 6-12 1-1 1h-22l-1-1-11-1-13-4q-9.7-3.8-15.5-11.5-2.2-2.8-1-9l3.5-4.5 7-5 7-3 10-3 12-1zm-92 49h22q1 2 5 1 10 2.5 16.5 8.5 4.4 3.6 5 11l-2 6-5.5 5.5-8 5-32 15-14 4h-18l-13-3-12-5-10-6-7.5-7.5-2-5 3.5-6.5 9-5 14-5zm192 0h20l1 1h5l1 1 13 2 29 10 19 5 8.5 6.5 1 6q-2.7 6.8-8.5 10.5l-13 7-12 4-9 1-1 1h-6l-1 1h-14l-8-2-21-9-24-13-6.5-5.5q-2.7-2.3-2-8 2.7-6.8 8.5-10.5l9-5zm-95 35h19l1 1h7l1 1 9 1 21 9 10.5 8.5q4.1 2.9 3 11l-4.5 5.5-12 4-12 1-1 1h-8l-1 1h-9l-1 1h-40l-1-1h-7l-17-4q-6.7-2.2-10.5-7.5l-1-6 6.5-9.5 7-5 15-7 17-4h7z"/></svg>