<svg xmlns="http://www.w3.org/2000/svg" viewBox="0 0 474 786"><path fill="#024" d="M204 24h65.5l1 3H288v3h6q-1.5 4.5 3 3v6l3 .5V63l-3 .5V75h3l.5 6h26l1 3h17l1 3h11l.5 3h9v3h3v3h3v3l3 .5V123h-11.5l-1-3h-23l-1-3h-38l-1-3H171l-.5 3h-38l-1 3h-20l-1 3H99v-8.5l-3-.5v-3l3-.5V99h3v-3h3v-3q4.5 1.5 3-3h9l.5-3h11l1-3h11l1-3h26l.5-3h6V36h3v-3h3v-3q4.5 1.5 3-3h20.5zm0 108h59.5l1 3h56l1 3h32l1 3h26l1 3h23l1 3h14l.5 3h8.5l.5 3h6v3h3q-1.5 4.5 3 3v6h3q-1.5 4.5 3 3v11.5l3 1V651l-3 .5V663h-3v6h-3q1.5 4.5-3 3v6q-4.5-1.5-3 3h-6v3h-3l-.5 3h-8l-.5 3h-9l-.5 3h-11l-1 3h-14l-1 3h-17l-1 3h-23l-1 3h-38l-1 3H174l-.5-3h-29l-1-3h-23l-1-3h-17l-1-3h-17l-1-3h-11l-1-3h-11l-.5-3h-6v-3h-6v-3h-6v-3h-3v-3h-3q1.5-4.5-3-3v-5.5l-3-.5v-6h-3v-62.5l-3-1V366l3-.5v-194l3-.5v-6h3v-3h3v-3h3v-3q4.5 1.5 3-3h6l.5-3H57l.5-3H69l.5-3h20l1-3h29l1-3h29l1-3h53zm24 66v3h-14l-1 3h-9v3h-6v3h-6q2 5-3 3v3h-3v3h-6q2 5-3 3v3h-3v6q-4-1-3 3h-3v6q-4-1-3 3h-3v9h-3v9h-3v42h3v9h3v6q5-1 3 3h3v6q5-1 3 3h3v3h3v3h3v3h3v3h3v3h6q-1 5 3 3v3h6l1 3h5v3h12v3h39v-3h12v-3h6v-3h6q-1-4 3-3v-3h6q-1-4 3-3v-3h3v-3h3v-3h3v-3h3v-6q5 2 3-3h3v-6h3v-6h3v-9h3v-41l-3-1v-8l-3-1v-6q-4 2-3-3h-3v-6q-4 2-3-3h-3v-3h-3v-3h-3v-3h-3v-3h-3v-3h-6q2-4-3-3v-3h-6v-3h-6v-3h-9v-3h-11l-1-3zm15 213v3h-6q2 5-3 3v3h-3v3h-3v3h-3v6q-4-1-3 3h-3v3h-3v6l-3 1v5q-4-1-3 3h-3v9h-3v6h-3v12l-3 1v17l-3 1v32q-4 2-3-3h-3v-6h-3v-6h-3v-21q-4-1-3 3h-3v3h-3v3h-3v3h-3v6h-3v6h-3v6h-3v9l-3 1v14h-3v30h3v12h3v9h3v6h3v6h3v6q5-1 3 3h3v3h3v3h3v3h3v3h3v3h3v3h6l1 3h5v3h6q-1 5 3 3v3h6q2-4-3-3v-3h-3v-6h-3v-14l-3-1v-9h3v-9h3v-6h3v-6q5 2 3-3h3v-3h3v-6q5 2 3-3h3v-6h3v-9h3v-6q5 2 3-3 5-1 3 3h3v3h3v9h3v6h3v6q5-1 3 3h3v6q5-1 3 3h3v6q5-1 3 3h3v12h3v9l-3 1v11h-3v6q-4-1-3 3h-3v6q5 2 3-3h9v-3h6q-1-4 3-3v-3h6q-1-4 3-3v-3h3v-3h3v-3h3v-3h3v-3h3v-3h3v-6h3v-6h3v-6h3v-6h3v-12h3v-41l-3-1v-9h-3v-9h-3v-6h-3v-6q-4 2-3-3h-3v-6q-4 2-3-3h-3v-6h-3v9l-3 1v14h-6v-6q-4 2-3-3h-3v-3h-3v-3h-3v-6q-4 2-3-3h-3v-6q-4 2-3-3h-3v-6h-3v-6h-3v-9h-3v-9h-3v-11l-3-1v-29zm-6-189h6q-1.5 4.5 3 3v6l3 .5v11l3 .5v11.5l3 1v11l3 1V297h-3v6h-3v3q-4.5-1.5-3 3h-6v3h-5.5l-.5 3h-6v3h-3v3q-4.5-1.5-3 3h-6v3h-5.5l-.5 3h-6q1.5-4.5-3-3v-6h-3v-6h3v-6h3q-1.5-4.5 3-3 1.5 4.5-3 3v6h-3v6h3v6h6v-3h6v-3q4.5 1.5 3-3h6v-3q4.5 1.5 3-3h6v-3h-3l-.5-3H225q1.5-4.5-3-3v-6h-3v-3q-4.5 1.5-3-3h3v-6l3-.5v-11l3-.5v-11.5l3-1v-14l3-.5v-11.5l3-.5v-8.5l3-.5zM75 714h11.5l1 3h14l1 3h17l1 3h20l1 3h26l1 3h56l1 3H258l.5-3h53l1-3h26l1-3h20l1-3h14l1-3h14l1-3H402v11.5l-3 .5v9h-3v3h-3v3h-3v3q-4.5-1.5-3 3h-6l-.5 3H372l-.5 3H363l-.5 3H354l-.5 3h-14l-1 3H315v-3h-6v-6q-4.5 1.5-3-3h-21l-.5 3H222l-.5-3H168v6q-4.5-1.5-3 3h-6v3h-21v-3h-14.5l-.5-3h-8.5l-.5-3h-8.5l-.5-3h-8.5l-.5-3h-6v-3h-6v-3h-3q1.5-4.5-3-3v-6l-3-.5z"/><path fill="#69be28" d="m297 63 3 .5V75l-3-.5zm3 15h14.5l.5 3h-14.5zm-129 36h14.5l.5 3h-14.5zm111 0h17.5l.5 3h-17.5zm-99 18h20.5l.5 3h-20.5zm81 0h20.5l.5 3h-20.5zm-36 66h20.5l.5 3h-20.5zm-48 21q4.5-1.5 3 3h-3v3h-3q1.5 4.5-3 3v-3h3v-3q4.5 1.5 3-3m33 75h6q-1.5 4.5 3 3v6q4.5-1.5 3 3h9v3h3v3q4.5-1.5 3 3-4.5 1.5-3-3h-6v3q4.5-1.5 3 3h-3q1.5-4.5-3-3v3h-6v3q-4.5-1.5-3 3 4.5-1.5 3 3-4.5 1.5-3-3h-6v3q4.5-1.5 3 3-4.5 1.5-3-3h-6q1.5 4.5-3 3-1.5-4.5 3-3v-6h-3q1.5 4.5-3 3-1.5-4.5 3-3v-6h3v-6q4.5 1.5 3-3-4.5 1.5-3-3h6v-3q4.5 1.5 3-3-4.5 1.5-3-3m-189 3 3 .5V366l-3-.5zm219 114 6 .5v29l3 1v11l3 .5v9h3v9h3v5.5l3 .5v6h3q-1.5 4.5 3 3v6h3q-1.5 4.5 3 3v6h3v3h3v3h3q-1.5 4.5 3 3v6h6v-14.5l3-.5v-9h3v6h3q-1.5 4.5 3 3v6h3q-1.5 4.5 3 3v6h3v6h3v9h3v9l3 .5V582h-3v12h-3v6h-3v6h-3v5.5l-3 .5v6h-3v3h-3v3h-3v3h-3v3h-3v3h-3v3q-4.5-1.5-3 3h-6v3q-4.5-1.5-3 3h-6l-.5 3H264q1.5 4.5-3 3v-6h3q-1.5-4.5 3-3v-6h3v-11.5l3-.5v-9l-3-.5V603h-3q1.5-4.5-3-3v-6h-3q1.5-4.5-3-3v-6h-3q1.5-4.5-3-3v-6h-3v-6l-3-.5V561h-3v-3h-3q1.5-4.5-3-3 1.5 4.5-3 3v6h-3v8.5l-3 .5v6h-3q1.5 4.5-3 3v6h-3v3h-3q1.5 4.5-3 3v6h-3v6h-3v8.5l-3 .5v9l3 .5V639h3v6h3v3q4.5-1.5 3 3h-6v-3q-4.5 1.5-3-3h-6v-3h-5.5l-.5-3h-6v-3h-3v-3h-3v-3h-3v-3h-3v-3h-3v-3h-3q1.5-4.5-3-3v-6h-3v-6h-3v-6h-3v-9l-3-.5V579l-3-.5V549h3v-14.5l3-.5v-9h3v-6h3v-6h3v-6h3v-3h3v-3h3v-3h3q-1.5-4.5 3-3v20.5l3 .5v6h3v6h3q-1.5 4.5 3 3v-32.5l3-1v-17l3-1V468h3v-6l3-.5V453h3q-1.5-4.5 3-3v-5.5l3-.5v-6h3v-3h3q-1.5-4.5 3-3v-6h3v-3h3v-3h3v-3q4.5 1.5 3-3h6zM24 597l3 .5V624l-3-.5zm138 108h11.5l.5 3h-11.5zm138 0h11.5l.5 3h-11.5zm-132 21h11.5l.5 3h-11.5zm57 3h32.5l.5 3h-32.5zm171 6q4.5-1.5 3 3h-3v3h-3q1.5 4.5-3 3v-3h3v-3q4.5 1.5 3-3m-198 15h23.5l.5 3h-23.5z"/><path fill="#f0f9ea" d="M216 21h44.5l.5 3h-44.5zm75 6h3v3h3q-1.5 4.5 3 3v3h-3v-3h-3v-3q-4.5 1.5-3-3m-117 6q4.5-1.5 3 3l-3 .5v41l-3 .5V36.5l3-.5zm-27 45h11.5l.5 3h-11.5zm219 12h3v3h3v3q4.5-1.5 3 3h-3v-3h-3v-3q-4.5 1.5-3-3M99 96q4.5-1.5 3 3h-3v6h-3v-6q4.5 1.5 3-3m87 18h95.5l.5 3h-95.5zm189 0h3v9q-4.5-1.5-3 3h-6v-3h6zm-234 3h17.5l.5 3h-17.5zm171 0h17.5l.5 3h-17.5zm-216 3h3l.5 3h8.5v3h-9v-3q-4.5 1.5-3-3m252 0h11.5l.5 3h-11.5zm-186 12h20.5l.5 3h-20.5zm123 0h23.5l.5 3h-23.5zm-159 3h14.5l.5 3h-14.5zm204 0h14.5l.5 3h-14.5zm-231 3h11.5l.5 3H99.5zm264 0h11.5l.5 3h-11.5zm24 3h11.5l.5 3h-11.5zM39 153q4.5-1.5 3 3h-3v3h-3v3h-3v3h-3q1.5 4.5-3 3v-3h3v-3h3v-3q4.5 1.5 3-3h3zm396 0h3v3h3v3q4.5-1.5 3 3h-3v-3h-3v-3q-4.5 1.5-3-3M24 174l3 .5V297l-3-.5zm426 12 3 .5V648l-3-.5zm-234 15h41.5l.5 3h8.5l.5 3h9v3q4.5-1.5 3 3h5.5l.5 3h6v3h3v3h3v3h3v3h3q-1.5 4.5 3 3v6h3q-1.5 4.5 3 3v6h3v6h3v11.5l3 1V297h-3v8.5l-3 .5v9h-3v6h-3q1.5 4.5-3 3v6h-3v3h-3v3h-3v3q-4.5-1.5-3 3h-6v3q-4.5-1.5-3 3h-6v3h-6v3h-6l-.5 3H255l-.5 3H222v-3h-12v-3h-6v-3h-6v-3h-5.5l-.5-3h-6v-3h-3v-3h-3v-3h-3v-3h-3q1.5-4.5-3-3v-6h-3q1.5-4.5-3-3v-6h-3v-6l-3-.5V297l-3-.5V264h3v-11.5l3-.5v-6h3v-6h3v-6h3v-3h3v-3h3v-3h3v-3h3v-3h3v-3q4.5 1.5 3-3h6v-3h6v-3h6v-3h9zm18 21v9l-3 1v11l-3 1v14l-3 1v11l-3 1v11h-3v6h-3v6h-3v6q-4-1-3 3h-3v6l-3 1v5h-3v9h3v6h12v-3h6q-1-4 3-3v-3h3v-3h6l1-3h5v-3h6q-1-4 3-3v-3h3v-3h3v-6h3v-32l-3-1v-14l-3-1v-8l-3-1v-8l-3-1v-6h-3v-3zM21 435l3 .5V552l-3-.5zm3 189 3 .5V657l-3-.5zm6 45h3v3h3v3h3v3h3v3q4.5-1.5 3 3h-3v-3h-3v-3h-3v-3h-3v-3q-4.5 1.5-3-3m315 33h11.5l.5 3h-11.5zm-195 3h11.5l.5 3h-11.5zm162 0h17.5l.5 3h-17.5zm-126 3h98.5l.5 3h-98.5zm-114 3 3 .5V729l-3-.5zm78 12h11.5l.5 3h-11.5zm171 0h11.5l.5 3h-11.5zm-141 3h23.5l.5 3h-23.5zm99 0h23.5l.5 3h-23.5zm-111 24h29.5l.5 3h-26.5l-.5 3h-3v3h-3v3h-3v-3h3q-1.5-4.5 3-3zm123 0h14.5l.5 3h-14.5zm-147 12h11.5l.5 3h-11.5zm174 0h14.5l.5 3h-14.5z"/></svg>