<svg xmlns="http://www.w3.org/2000/svg" viewBox="0 0 416 720"><path fill="#024" stroke="#024" d="M187.5 0h42l1 1h12l1 1 13 1 8.5 4 4 8.5 1 14-1 1v22l1.5 1.5 19 1 1 1h6l1 1h5l1 1 14 2 16 6 7.5 6.5 3 6v16l-2.5 3.5h-5l-12-3-30-2-1-1h-12l-1-1h-15l-1-1h-22l-1-1h-71l-1 1h-21l-1 1h-15l-1 1-23 1-1 1h-7l-1 1h-6l-7 2-12 1-2.5-2.5-1-14q1.7-7.8 6.5-12.5l11-6 18-5 10-1 1-1h7l1-1h8l1-1h9l1.5-1.5 1-2v-20l-1-1v-11l3-8 5.5-5.5 12-3 21-1zm-16 106h66l1 1h22l1 1h16l1 1h13l1 1 22 1 1 1h9l1 1 17 1 1 1h7l1 1 17 1 22 5q11 4 17.5 12.5l5 9 3 13v451l-3 13q-3.9 10.6-11.5 17.5l-16 10-21 6h-4l-16 4h-5l-1 1-21 2-1 1h-9l-1 1h-9l-1 1-27 1-1 1-49 1-1 1h-27l-1-1h-28l-1-1h-15l-1-1-22-1-1-1-16-1-1-1h-6l-1-1h-6l-1-1h-6l-1-1-23-3-17-4-14-5q-12-4.5-19.5-13.5l-6-10-3-12-1-93-1-1v-120l1-1v-89l1-1v-156q3.9-14.1 14.5-21.5l18-8 13-3h6l1-1 27-2 1-1 27-2 1-1h11l1-1h11l1-1h15l1-1h20zm26.5 66-19 5q-13 5-22 13-12 9-19 23l-6 14-3 13v22l1 1 1 9 5 13 10 15q13 14 32 22l13 4 13 1 1 1 19-1 12-3q15-5 27-15 11-9 18-22l6-14 2-8v-5l1-1v-19l-1-1-1-9q-5-18-16-29-14-17-36-25l-17-4zm20 204-8 6q-19 15-30 39l-9 27-1 11-1 1v15l-1 1v15l1 1q2 5-2 4l-5-4-7-16v-16l-1-1q-13 12-20 30l-5 17-1 17-1 1 1 17 6 22q5 11 13 21l14 12 25 14v-2l-5-5-4-13v-7l-1-1q2-3 1-9l2-6 19-28 8-18 4-4h2l9 18 1 4 17 25 4 12v8l-3 11-8 13 1 2 11-4 15-10q14-12 24-29l7-18 1-8 1-1v-7l1-1-1-23-6-21-8-16-11-15-1 8-1 1v13l-1 1v1h-4v-1q-13-13-22-28l-10-19-8-26v-7l-1-1v-21z"/><path fill="#024" stroke="#024" d="m208.5 193 5.5 1 5 9.5 7 26v4l2 6 1 20-4 12-6.5 6.5-13 6-18 13-7 2-5.5-4.5q-2-4-1-11l13-20 5-11 5-18 6-32q1.3-6.2 5.5-9.5ZM190 262l-2 6-11 17q-1 8 4 10 5 0 7-2l23-15-5-1-10-4q-4-2-4-8zM49 670h5.5l8 3h4l16 4 11 1 7 2h6l1 1 15 1 1 1h8l1 1 22 1 1 1h15l1 1 50 1 1-1h30l1-1h15l1-1h11l1-1 18-1 1-1h6l1-1h7l1-1 17-2 35-8 1.5 1.5v11l-3 10-6.5 7.5-14 8-17 6-21 5-18 1-9-3-4.5-4.5-2.5-4.5h-10l-7 2h-71l-1-1h-26l-1-1h-13l-1-1-5 9-6 3-12 1-1-1-14-1-30-9-16-8-6.5-6.5-4-9z"/><path fill="#69be28" stroke="#69be28" d="m264.5 193 7.5 7.5-.5.5-7.5-7.5zm-36 51 .5 4.5h-1zm-39 18 2.5 2.5q-.4 6.4 3.5 8.5l10 4 5.5.5-23.5 15.5q-2 2.5-7 2-4.8-2.2-3.5-10.5l11-17zm35 10 .5.5-4.5 4.5-.5-.5zm-20 55 10.5.5-10.5.5zm13 49 1.5 1.5v21l1 1v7l8 26 10 19q9.3 15.7 22 28v1.5h4v-1.5l1-1v-13l1-1 .5-7.5 11.5 14.5 8 16 6 21 1 23-1 1v7l-1 1-1 8-7 18q-9.5 17.5-24.5 29.5l-15 10-11 4-.5-2.5 8-13 3-11v-8l-4-12-17-25-1-4-9.5-17.5h-2l-3.5 3.5-8 18-19 28-2 6q1.2 6.2-1 9l1 1v7l4 13 5 5v2.5l-25.5-14-13.5-12.5q-7.8-9.2-13-21l-6-22-1-17 1-1 1-17 5-17q7-17.5 19.5-29.5l1.5.5v16l7 16 4.5 4.5q4.6 1.4 2.5-4.5l-1-1v-15l1-1v-15l1-1 1-11 9-27q11-23 29.5-38.5z"/><path fill="#eef4ef" stroke="#eef4ef" d="M200.5 172h15q1.5 2.5 7 1l1 1 8 1 13 5q18.4 9.1 30.5 24.5 8.6 10.9 13 26l1 10 1 1v15l-1 1v6l-2 8-8 18-14.5 17.5q-12.2 11.3-30 17l-13 3h-24l-1-1-9-1-16-6q-12.8-6.7-22.5-16.5-10.3-10.7-16-26l-4-17v-17l1-1v-6l2-8 8-18 14.5-17.5q8.6-7.9 20-13l11-4 8-2h6zm9.5 20-5 5-3 9-2 14-5 19v4l-4 12q-6 13-15 24l-3 8 1 6 3 5 3 1h4l6-3 13-10 18-9 4-4 4-11v-17l-1-1-2-15-6-23-5-10z"/></svg>